<svg width="1146" height="619" viewBox="0 0 1146 619" fill="none" xmlns="http://www.w3.org/2000/svg">
<rect width="1146" height="619" fill="#F5F5F5"/>
<rect x="61" y="76" width="1024" height="482" fill="#FFDB15"/>
<ellipse cx="82" cy="87" rx="82.6843" ry="48.8376" transform="rotate(-135 82 87)" fill="#F94500"/>
<ellipse cx="92" cy="528" rx="82.6843" ry="48.8376" transform="rotate(135 92 528)" fill="#F94500"/>
<ellipse cx="1061" cy="520" rx="82.6843" ry="48.8376" transform="rotate(-135 1061 520)" fill="#F94500"/>
<ellipse cx="185" cy="552" rx="61" ry="45" transform="rotate(90 185 552)" fill="#F94500"/>
<ellipse cx="275.5" cy="558" rx="61" ry="45.5" transform="rotate(90 275.5 558)" fill="#F94500"/>
<ellipse cx="366" cy="558" rx="61" ry="45" transform="rotate(90 366 558)" fill="#F94500"/>
<ellipse cx="456.5" cy="558" rx="61" ry="45.5" transform="rotate(90 456.5 558)" fill="#F94500"/>
<ellipse cx="895.5" cy="558" rx="61" ry="45.5" transform="rotate(90 895.5 558)" fill="#F94500"/>
<ellipse cx="979" cy="552" rx="61" ry="45" transform="rotate(90 979 552)" fill="#F94500"/>
<ellipse cx="547" cy="558" rx="61" ry="45" transform="rotate(90 547 558)" fill="#F94500"/>
<ellipse cx="637.5" cy="558" rx="61" ry="45.5" transform="rotate(90 637.5 558)" fill="#F94500"/>
<ellipse cx="61" cy="180" rx="61" ry="45" transform="rotate(-180 61 180)" fill="#F94500"/>
<ellipse cx="61" cy="265.5" rx="61" ry="45.5" transform="rotate(-180 61 265.5)" fill="#F94500"/>
<ellipse cx="61" cy="348" rx="61" ry="45" transform="rotate(-180 61 348)" fill="#F94500"/>
<ellipse cx="61" cy="433.5" rx="61" ry="45.5" transform="rotate(-180 61 433.5)" fill="#F94500"/>
<ellipse cx="724" cy="558" rx="61" ry="45" transform="rotate(90 724 558)" fill="#F94500"/>
<ellipse cx="811.5" cy="558" rx="61" ry="45.5" transform="rotate(90 811.5 558)" fill="#F94500"/>
<ellipse cx="176" cy="61" rx="61" ry="45" transform="rotate(90 176 61)" fill="#F94500"/>
<ellipse cx="266.5" cy="67" rx="61" ry="45.5" transform="rotate(90 266.5 67)" fill="#F94500"/>
<ellipse cx="357" cy="67" rx="61" ry="45" transform="rotate(90 357 67)" fill="#F94500"/>
<ellipse cx="447.5" cy="67" rx="61" ry="45.5" transform="rotate(90 447.5 67)" fill="#F94500"/>
<ellipse cx="886.5" cy="67" rx="61" ry="45.5" transform="rotate(90 886.5 67)" fill="#F94500"/>
<ellipse cx="970" cy="61" rx="61" ry="45" transform="rotate(90 970 61)" fill="#F94500"/>
<ellipse cx="538" cy="67" rx="61" ry="45" transform="rotate(90 538 67)" fill="#F94500"/>
<ellipse cx="628.5" cy="67" rx="61" ry="45.5" transform="rotate(90 628.5 67)" fill="#F94500"/>
<ellipse cx="715" cy="67" rx="61" ry="45" transform="rotate(90 715 67)" fill="#F94500"/>
<ellipse cx="802.5" cy="67" rx="61" ry="45.5" transform="rotate(90 802.5 67)" fill="#F94500"/>
<ellipse cx="1085" cy="173" rx="61" ry="45" transform="rotate(-180 1085 173)" fill="#F94500"/>
<ellipse cx="1085" cy="258.5" rx="61" ry="45.5" transform="rotate(-180 1085 258.5)" fill="#F94500"/>
<ellipse cx="1085" cy="341" rx="61" ry="45" transform="rotate(-180 1085 341)" fill="#F94500"/>
<ellipse cx="1085" cy="426.5" rx="61" ry="45.5" transform="rotate(-180 1085 426.5)" fill="#F94500"/>
<ellipse cx="1070" cy="76" rx="82.6843" ry="48.8376" transform="rotate(135 1070 76)" fill="#F94500"/>
</svg>
