<svg width="1600" height="400" viewBox="0 0 1600 400" fill="none" xmlns="http://www.w3.org/2000/svg">
<rect width="1600" height="400" fill="#F5F5F5"/>
<rect width="1600" height="400" fill="#826DEE"/>
<path d="M2.12176e-05 81.9999L1600 81.9998" stroke="#FF99DC" stroke-width="2"/>
<path d="M0 43H1600" stroke="#FF99DC" stroke-width="2"/>
<path d="M0 3H1600" stroke="#FF99DC" stroke-width="2"/>
<path d="M2.12914e-05 199L1600 199" stroke="#FF99DC" stroke-width="2"/>
<path d="M0 160H1600" stroke="#FF99DC" stroke-width="2"/>
<path d="M0 120H1600" stroke="#FF99DC" stroke-width="2"/>
<path d="M2.12841e-05 319L1600 319" stroke="#FF99DC" stroke-width="2"/>
<path d="M0 280H1600" stroke="#FF99DC" stroke-width="2"/>
<path d="M0 240H1600" stroke="#FF99DC" stroke-width="2"/>
<path d="M0 397H1600" stroke="#FF99DC" stroke-width="2"/>
<path d="M0 357H1600" stroke="#FF99DC" stroke-width="2"/>
<path d="M52 0V400" stroke="#FF99DC" stroke-width="2"/>
<path d="M12 0V400" stroke="#FF99DC" stroke-width="2"/>
<path d="M132 0V400" stroke="#FF99DC" stroke-width="2"/>
<path d="M92 0V400" stroke="#FF99DC" stroke-width="2"/>
<path d="M172 0V400" stroke="#FF99DC" stroke-width="2"/>
<path d="M252 0V400" stroke="#FF99DC" stroke-width="2"/>
<path d="M212 0V400" stroke="#FF99DC" stroke-width="2"/>
<path d="M332 0V400" stroke="#FF99DC" stroke-width="2"/>
<path d="M292 0V400" stroke="#FF99DC" stroke-width="2"/>
<path d="M372 0V400" stroke="#FF99DC" stroke-width="2"/>
<path d="M452 0V400" stroke="#FF99DC" stroke-width="2"/>
<path d="M412 0V400" stroke="#FF99DC" stroke-width="2"/>
<path d="M532 0V400" stroke="#FF99DC" stroke-width="2"/>
<path d="M492 0V400" stroke="#FF99DC" stroke-width="2"/>
<path d="M572 0V400" stroke="#FF99DC" stroke-width="2"/>
<path d="M652 0V400" stroke="#FF99DC" stroke-width="2"/>
<path d="M612 0V400" stroke="#FF99DC" stroke-width="2"/>
<path d="M732 0V400" stroke="#FF99DC" stroke-width="2"/>
<path d="M692 0V400" stroke="#FF99DC" stroke-width="2"/>
<path d="M772 0V400" stroke="#FF99DC" stroke-width="2"/>
<path d="M852 0V400" stroke="#FF99DC" stroke-width="2"/>
<path d="M812 0V400" stroke="#FF99DC" stroke-width="2"/>
<path d="M932 0V400" stroke="#FF99DC" stroke-width="2"/>
<path d="M892 0V400" stroke="#FF99DC" stroke-width="2"/>
<path d="M972 0V400" stroke="#FF99DC" stroke-width="2"/>
<path d="M1052 0V400" stroke="#FF99DC" stroke-width="2"/>
<path d="M1012 0V400" stroke="#FF99DC" stroke-width="2"/>
<path d="M1132 0V400" stroke="#FF99DC" stroke-width="2"/>
<path d="M1092 0V400" stroke="#FF99DC" stroke-width="2"/>
<path d="M1172 0V400" stroke="#FF99DC" stroke-width="2"/>
<path d="M1252 0V400" stroke="#FF99DC" stroke-width="2"/>
<path d="M1212 0V400" stroke="#FF99DC" stroke-width="2"/>
<path d="M1332 0V400" stroke="#FF99DC" stroke-width="2"/>
<path d="M1292 0V400" stroke="#FF99DC" stroke-width="2"/>
<path d="M1372 0V400" stroke="#FF99DC" stroke-width="2"/>
<path d="M1452 0V400" stroke="#FF99DC" stroke-width="2"/>
<path d="M1412 0V400" stroke="#FF99DC" stroke-width="2"/>
<path d="M1532 0V400" stroke="#FF99DC" stroke-width="2"/>
<path d="M1492 0V400" stroke="#FF99DC" stroke-width="2"/>
<path d="M1572 0V400" stroke="#FF99DC" stroke-width="2"/>
</svg>
