<svg width="24" height="24" viewBox="0 0 24 24" fill="none" xmlns="http://www.w3.org/2000/svg">
<path d="M21.3182 8.63588L15.3748 2.69241L17.7765 0.290657C18.1641 -0.0968858 18.7924 -0.0968858 19.1799 0.290657L23.72 4.83073C24.1075 5.21827 24.1075 5.84658 23.72 6.23413L21.3182 8.63588Z" fill="#F94500"/>
<path d="M20.5648 9.39748C20.7843 9.61703 20.7843 9.97284 20.5648 10.1924L20.4156 10.3416C20.196 10.5611 19.8402 10.5611 19.6207 10.3416L13.6595 4.38041C13.44 4.16087 13.44 3.80506 13.6595 3.58552L13.8087 3.43633C14.0283 3.21679 14.3841 3.21679 14.6036 3.43633C14.3841 3.21679 14.3842 2.86085 14.6037 2.64131L14.7529 2.49213C14.9723 2.27271 15.3283 2.27258 15.5478 2.49213L21.509 8.45328C21.7285 8.67282 21.7284 9.02875 21.509 9.24817L21.3598 9.39736C21.1402 9.6169 20.7843 9.61703 20.5648 9.39748Z" fill="white"/>
<path d="M2.06045 23.79L0.357077 24.0011C0.151539 24.0265 -0.022997 23.852 0.00247926 23.6465L0.213573 21.9431C0.667149 21.9991 1.10624 22.2012 1.45433 22.5493C1.80242 22.8973 2.00444 23.3364 2.06045 23.79Z" fill="white"/>
<path d="M6.747 23.2093L2.07077 23.7889C2.01478 23.3353 1.81272 22.8962 1.46463 22.5481C1.11654 22.2 0.677453 21.998 0.223877 21.942L0.803465 17.2657L3.34531 17.8948L3.77523 20.2375L6.11794 20.6674L6.747 23.2093Z" fill="white"/>
<path d="M18.027 8.74797L6.10709 20.6678L3.76439 20.2379L3.33447 17.8952L15.2543 5.97534L18.027 8.74797Z" fill="#FFDB15"/>
<path d="M15.2449 5.97181L3.32505 17.8917L0.783203 17.2626L13.6595 4.38635L15.2449 5.97181Z" fill="#FFDB15"/>
<path d="M19.615 10.3358L6.7387 23.2121L6.10962 20.6702L18.0295 8.75037L19.615 10.3358Z" fill="#FFDB15"/>
</svg>
