<svg width="45" height="21" viewBox="0 0 45 21" fill="white" xmlns="http://www.w3.org/2000/svg">
<rect width="45" height="21" fill="none"/>
<path d="M40.5001 11L40.1558 10.6372L40.1465 10.6465L40.5001 11ZM4.99994 3.99998L4.79953 3.5419L4.77146 3.55418L4.74511 3.5698L4.99994 3.99998ZM16.2511 20.4336C16.4906 20.5711 16.7962 20.4885 16.9337 20.249C17.0712 20.0095 16.9885 19.7039 16.749 19.5664L16.2511 20.4336ZM9.44254 15.0033C9.03923 15.05 8.73862 15.0955 8.57145 15.1453C8.53351 15.1566 8.45659 15.1808 8.38244 15.2281C8.34907 15.2494 8.26304 15.3078 8.2015 15.4188C8.12035 15.5651 8.11085 15.7531 8.20222 15.9164C8.271 16.0394 8.37033 16.0989 8.40727 16.1195C8.45414 16.1456 8.4973 16.1608 8.52461 16.1694C8.58031 16.187 8.63712 16.1974 8.68242 16.2043C9.01634 16.2553 9.83355 16.2682 10.9421 16.2512C13.2009 16.2164 16.8709 16.0513 20.8854 15.7216C24.8986 15.3921 29.2698 14.897 32.926 14.1999C34.7534 13.8515 36.4141 13.4504 37.7672 12.99C39.1022 12.5356 40.2053 12.0019 40.8536 11.3536L40.1465 10.6465C39.6699 11.1231 38.7547 11.5976 37.445 12.0433C36.1533 12.4829 34.5427 12.8736 32.7387 13.2176C29.1322 13.9052 24.8006 14.3968 20.8036 14.725C16.808 15.0531 13.1604 15.2169 10.9268 15.2513C9.78918 15.2688 9.0665 15.2514 8.83344 15.2158C8.80786 15.2119 8.809 15.2106 8.82475 15.2155C8.83209 15.2179 8.85921 15.2266 8.89403 15.246C8.91892 15.2598 9.01019 15.3124 9.07498 15.4283C9.16236 15.5845 9.15292 15.7651 9.07597 15.9039C9.01862 16.0073 8.94091 16.058 8.92005 16.0713C8.87092 16.1026 8.83578 16.11 8.85691 16.1037C8.92601 16.0831 9.13821 16.0453 9.55758 15.9967L9.44254 15.0033ZM40.8443 11.3627C43.0004 9.31623 44.1301 7.60171 44.3115 6.13817C44.4049 5.38466 44.2452 4.70916 43.8654 4.12222C43.4922 3.54552 42.9243 3.08084 42.2394 2.70081C40.8779 1.94537 38.9412 1.46348 36.754 1.13588C34.5553 0.806562 32.0514 0.626266 29.5248 0.500613L29.4752 1.49938C31.9928 1.62459 34.4572 1.80302 36.6059 2.12485C38.766 2.4484 40.5555 2.91009 41.7542 3.57522C42.3494 3.90548 42.7701 4.27035 43.0258 4.6655C43.2749 5.05042 43.3843 5.4891 43.3191 6.01516C43.1833 7.11076 42.2846 8.61695 40.1559 10.6374L40.8443 11.3627ZM29.5248 0.500613C19.4273 -0.00156619 12.9139 -0.00810104 4.79953 3.5419L5.20035 4.45806C13.0861 1.0081 19.3959 0.998106 29.4752 1.49938L29.5248 0.500613ZM4.74511 3.5698C2.80738 4.71767 1.51345 5.83296 1.01612 7.05276C0.487293 8.34982 0.906343 9.61248 1.97048 10.874C3.02348 12.1222 4.77959 13.4641 7.15256 15.0052C9.53461 16.5521 12.5823 18.327 16.2511 20.4336L16.749 19.5664C13.0769 17.4579 10.0527 15.6962 7.6972 14.1665C5.33262 12.6309 3.68551 11.3561 2.73484 10.2292C1.79532 9.11542 1.61026 8.24425 1.94211 7.4303C2.30546 6.53911 3.337 5.56622 5.25477 4.43017L4.74511 3.5698Z" fill="#826DEE"/>
</svg>
