<svg width="2048" height="48" viewBox="0 0 2048 48" fill="none" xmlns="http://www.w3.org/2000/svg">
<rect width="2048" height="48" fill="#F5F5F5"/>
<rect width="1024" height="48" fill="#FF99DC"/>
<path d="M36.5312 34H33.4844L27.5312 27.4688L24.9062 29.875V34H22.7656V19.4375H24.9062V27.2812L33.2031 19.4375H36.2656L28.9688 26.125L36.5312 34ZM53.2656 34H51.1094V27.4688H42.375V34H40.2344V19.4375H42.375V25.6406H51.1094V19.4375H53.2656V34ZM71.875 26.7656C71.875 27.901 71.6927 28.9323 71.3281 29.8594C70.974 30.7865 70.4583 31.5833 69.7812 32.25C69.1146 32.9062 68.3125 33.4219 67.375 33.7969C66.4375 34.1719 65.3906 34.3594 64.2344 34.3594C63.099 34.3594 62.0625 34.1719 61.125 33.7969C60.1875 33.4219 59.3802 32.9062 58.7031 32.25C58.0365 31.5833 57.5208 30.7865 57.1562 29.8594C56.8021 28.9323 56.625 27.901 56.625 26.7656C56.625 25.6615 56.8021 24.6354 57.1562 23.6875C57.5208 22.7292 58.0365 21.9167 58.7031 21.25C59.3802 20.5729 60.1875 20.0469 61.125 19.6719C62.0625 19.2865 63.099 19.0938 64.2344 19.0938C65.3906 19.0938 66.4375 19.2865 67.375 19.6719C68.3125 20.0469 69.1146 20.5729 69.7812 21.25C70.4583 21.9167 70.974 22.7292 71.3281 23.6875C71.6927 24.6354 71.875 25.6615 71.875 26.7656ZM69.7344 26.7656C69.7344 25.9323 69.6094 25.1667 69.3594 24.4688C69.1198 23.7604 68.7604 23.1406 68.2812 22.6094C67.8021 22.0781 67.2188 21.6615 66.5312 21.3594C65.8542 21.0573 65.0885 20.9062 64.2344 20.9062C63.3802 20.9062 62.6094 21.0573 61.9219 21.3594C61.2448 21.6615 60.6719 22.0781 60.2031 22.6094C59.7344 23.1406 59.375 23.7604 59.125 24.4688C58.8854 25.1667 58.7656 25.9323 58.7656 26.7656C58.7656 27.599 58.8854 28.3698 59.125 29.0781C59.375 29.776 59.7344 30.3802 60.2031 30.8906C60.6719 31.401 61.2448 31.8021 61.9219 32.0938C62.6094 32.3854 63.3802 32.5312 64.2344 32.5312C65.0885 32.5312 65.8542 32.3854 66.5312 32.0938C67.2188 31.8021 67.8021 31.401 68.2812 30.8906C68.7604 30.3802 69.1198 29.776 69.3594 29.0781C69.6094 28.3698 69.7344 27.599 69.7344 26.7656ZM88.2031 34H86.0469V21.2656H77.3125V34H75.1719V19.4375H88.2031V34ZM106.406 34H103.359L97.4062 27.4688L94.7812 29.875V34H92.6406V19.4375H94.7812V27.2812L103.078 19.4375H106.141L98.8438 26.125L106.406 34ZM110.109 19.4375H112.25V31.1875L120.125 19.4375H123.141V34H120.984V21.7188L112.766 34H110.109V19.4375Z" fill="black"/>
<path d="M812.797 32H810.641V19.2656H801.906V32H799.766V17.4375H812.797V32ZM831.031 24.7344C831.031 25.8698 830.854 26.901 830.5 27.8281C830.146 28.7552 829.646 29.5573 829 30.2344C828.365 30.901 827.594 31.4219 826.688 31.7969C825.781 32.1719 824.766 32.3594 823.641 32.3594C822.87 32.3594 822.12 32.2188 821.391 31.9375C820.672 31.6562 820 31.2396 819.375 30.6875V37.8281H817.234V17.4375H819.375V18.7812C820.698 17.6562 822.12 17.0938 823.641 17.0938C824.766 17.0938 825.781 17.2812 826.688 17.6562C827.594 18.0208 828.365 18.5469 829 19.2344C829.646 19.9115 830.146 20.724 830.5 21.6719C830.854 22.6094 831.031 23.6302 831.031 24.7344ZM828.891 24.7344C828.891 23.9219 828.776 23.1615 828.547 22.4531C828.328 21.7344 827.995 21.1146 827.547 20.5938C827.099 20.0729 826.547 19.6615 825.891 19.3594C825.245 19.0573 824.495 18.9062 823.641 18.9062C822.828 18.9062 822.068 19.0573 821.359 19.3594C820.661 19.6615 820 20.151 819.375 20.8281V28.6406C820 29.3177 820.661 29.8021 821.359 30.0938C822.068 30.3854 822.828 30.5312 823.641 30.5312C824.495 30.5312 825.245 30.3802 825.891 30.0781C826.547 29.776 827.099 29.3646 827.547 28.8438C827.995 28.3229 828.328 27.7135 828.547 27.0156C828.776 26.3073 828.891 25.5469 828.891 24.7344ZM848.875 24.7656C848.875 25.901 848.693 26.9323 848.328 27.8594C847.974 28.7865 847.458 29.5833 846.781 30.25C846.115 30.9062 845.312 31.4219 844.375 31.7969C843.438 32.1719 842.391 32.3594 841.234 32.3594C840.099 32.3594 839.062 32.1719 838.125 31.7969C837.188 31.4219 836.38 30.9062 835.703 30.25C835.036 29.5833 834.521 28.7865 834.156 27.8594C833.802 26.9323 833.625 25.901 833.625 24.7656C833.625 23.6615 833.802 22.6354 834.156 21.6875C834.521 20.7292 835.036 19.9167 835.703 19.25C836.38 18.5729 837.188 18.0469 838.125 17.6719C839.062 17.2865 840.099 17.0938 841.234 17.0938C842.391 17.0938 843.438 17.2865 844.375 17.6719C845.312 18.0469 846.115 18.5729 846.781 19.25C847.458 19.9167 847.974 20.7292 848.328 21.6875C848.693 22.6354 848.875 23.6615 848.875 24.7656ZM846.734 24.7656C846.734 23.9323 846.609 23.1667 846.359 22.4688C846.12 21.7604 845.76 21.1406 845.281 20.6094C844.802 20.0781 844.219 19.6615 843.531 19.3594C842.854 19.0573 842.089 18.9062 841.234 18.9062C840.38 18.9062 839.609 19.0573 838.922 19.3594C838.245 19.6615 837.672 20.0781 837.203 20.6094C836.734 21.1406 836.375 21.7604 836.125 22.4688C835.885 23.1667 835.766 23.9323 835.766 24.7656C835.766 25.599 835.885 26.3698 836.125 27.0781C836.375 27.776 836.734 28.3802 837.203 28.8906C837.672 29.401 838.245 29.8021 838.922 30.0938C839.609 30.3854 840.38 30.5312 841.234 30.5312C842.089 30.5312 842.854 30.3854 843.531 30.0938C844.219 29.8021 844.802 29.401 845.281 28.8906C845.76 28.3802 846.12 27.776 846.359 27.0781C846.609 26.3698 846.734 25.599 846.734 24.7656ZM865.938 32H862.891L856.938 25.4688L854.312 27.875V32H852.172V17.4375H854.312V25.2812L862.609 17.4375H865.672L858.375 24.125L865.938 32ZM883.438 24.7344C883.438 25.8698 883.26 26.901 882.906 27.8281C882.552 28.7552 882.052 29.5573 881.406 30.2344C880.771 30.901 880 31.4219 879.094 31.7969C878.188 32.1719 877.172 32.3594 876.047 32.3594C875.276 32.3594 874.526 32.2188 873.797 31.9375C873.078 31.6562 872.406 31.2396 871.781 30.6875V37.8281H869.641V17.4375H871.781V18.7812C873.104 17.6562 874.526 17.0938 876.047 17.0938C877.172 17.0938 878.188 17.2812 879.094 17.6562C880 18.0208 880.771 18.5469 881.406 19.2344C882.052 19.9115 882.552 20.724 882.906 21.6719C883.26 22.6094 883.438 23.6302 883.438 24.7344ZM881.297 24.7344C881.297 23.9219 881.182 23.1615 880.953 22.4531C880.734 21.7344 880.401 21.1146 879.953 20.5938C879.505 20.0729 878.953 19.6615 878.297 19.3594C877.651 19.0573 876.901 18.9062 876.047 18.9062C875.234 18.9062 874.474 19.0573 873.766 19.3594C873.068 19.6615 872.406 20.151 871.781 20.8281V28.6406C872.406 29.3177 873.068 29.8021 873.766 30.0938C874.474 30.3854 875.234 30.5312 876.047 30.5312C876.901 30.5312 877.651 30.3802 878.297 30.0781C878.953 29.776 879.505 29.3646 879.953 28.8438C880.401 28.3229 880.734 27.7135 880.953 27.0156C881.182 26.3073 881.297 25.5469 881.297 24.7344ZM901.359 17.4375L893.484 35.6875C893.078 36.7083 892.505 37.375 891.766 37.6875C891.026 38.0104 890.208 38.1719 889.312 38.1719C888.312 38.1719 887.312 37.9896 886.312 37.625L886.734 35.7812C887.224 35.9896 887.703 36.1354 888.172 36.2188C888.641 36.3125 889.021 36.3594 889.312 36.3594C890.021 36.3594 890.505 36.1875 890.766 35.8438C891.036 35.5 891.271 35.0938 891.469 34.625L892.359 32.4219L885.859 17.4375H888.391L893.641 30.1719L898.797 17.4375H901.359ZM918.375 24.3125H916.547V19.2656H912.172V30.1719H915.453V32H906.719V30.1719H910.016V19.2656H905.641V24.3125H903.812V17.4375H918.375V24.3125ZM935.812 32H932.766L926.812 25.4688L924.188 27.875V32H922.047V17.4375H924.188V25.2812L932.484 17.4375H935.547L928.25 24.125L935.812 32ZM938.719 28.0625C938.719 27.1458 938.948 26.3802 939.406 25.7656C939.865 25.1406 940.464 24.651 941.203 24.2969C941.953 23.9323 942.807 23.6719 943.766 23.5156C944.734 23.349 945.719 23.2656 946.719 23.2656C947.104 23.2656 947.448 23.2708 947.75 23.2812C948.062 23.2917 948.354 23.3073 948.625 23.3281C948.906 23.349 949.188 23.375 949.469 23.4062C949.75 23.4375 950.057 23.474 950.391 23.5156V22.4688C950.391 21.7604 950.234 21.1771 949.922 20.7188C949.62 20.2604 949.245 19.901 948.797 19.6406C948.349 19.3698 947.88 19.1823 947.391 19.0781C946.901 18.9635 946.484 18.9062 946.141 18.9062C945.057 18.9062 944.057 19.0521 943.141 19.3438C942.224 19.6354 941.37 20.026 940.578 20.5156L939.609 18.9062C940.484 18.375 941.464 17.9427 942.547 17.6094C943.641 17.2656 944.839 17.0938 946.141 17.0938C946.932 17.0938 947.708 17.1979 948.469 17.4062C949.24 17.6042 949.927 17.9167 950.531 18.3438C951.146 18.7604 951.635 19.3125 952 20C952.365 20.6875 952.547 21.5104 952.547 22.4688V32H950.391V29.5625C950.016 30.0312 949.589 30.4427 949.109 30.7969C948.641 31.151 948.146 31.4427 947.625 31.6719C947.104 31.8906 946.583 32.0573 946.062 32.1719C945.542 32.2969 945.047 32.3594 944.578 32.3594C942.651 32.3594 941.193 31.9896 940.203 31.25C939.214 30.5104 938.719 29.4479 938.719 28.0625ZM944.578 30.5312C945.474 30.5312 946.276 30.401 946.984 30.1406C947.703 29.8698 948.312 29.5365 948.812 29.1406C949.312 28.7448 949.698 28.3229 949.969 27.875C950.25 27.4271 950.391 27.0208 950.391 26.6562V25.2812C949.693 25.1771 949.021 25.1198 948.375 25.1094C947.74 25.099 947.188 25.0938 946.719 25.0938C945.948 25.0938 945.203 25.1458 944.484 25.25C943.776 25.3542 943.156 25.526 942.625 25.7656C942.094 25.9948 941.667 26.2969 941.344 26.6719C941.021 27.0469 940.859 27.5104 940.859 28.0625C940.859 28.6771 941.156 29.2448 941.75 29.7656C942.354 30.276 943.297 30.5312 944.578 30.5312Z" fill="black"/>
<path d="M657.797 34H655.641V22.4531L652.062 30H650.531L646.906 22.4531V34H644.766V19.4375H647.547L651.297 27.0312L655.016 19.4375H657.797V34ZM663.609 27.4688C663.766 29.0104 664.328 30.2396 665.297 31.1562C666.266 32.0729 667.526 32.5312 669.078 32.5312C670.172 32.5312 671.146 32.3073 672 31.8594C672.854 31.4115 673.495 30.8542 673.922 30.1875L675.422 31.2188C674.693 32.2396 673.823 33.0208 672.812 33.5625C671.802 34.0938 670.557 34.3594 669.078 34.3594C667.953 34.3594 666.922 34.1719 665.984 33.7969C665.047 33.4219 664.234 32.901 663.547 32.2344C662.87 31.5573 662.344 30.7552 661.969 29.8281C661.594 28.901 661.406 27.8698 661.406 26.7344C661.406 25.6302 661.573 24.6146 661.906 23.6875C662.25 22.75 662.74 21.9427 663.375 21.2656C664.021 20.5781 664.802 20.0469 665.719 19.6719C666.635 19.2865 667.661 19.0938 668.797 19.0938C670.036 19.0938 671.12 19.3021 672.047 19.7188C672.974 20.1354 673.745 20.7135 674.359 21.4531C674.984 22.1823 675.443 23.0573 675.734 24.0781C676.036 25.099 676.188 26.2292 676.188 27.4688H663.609ZM673.922 25.6406C673.682 24.0469 673.104 22.8594 672.188 22.0781C671.271 21.2969 670.141 20.9062 668.797 20.9062C668.109 20.9062 667.474 21.0208 666.891 21.25C666.307 21.4688 665.792 21.7865 665.344 22.2031C664.896 22.6198 664.521 23.125 664.219 23.7188C663.917 24.3021 663.724 24.9427 663.641 25.6406H673.922ZM692.734 34H690.578V27.4688H681.844V34H679.703V19.4375H681.844V25.6406H690.578V19.4375H692.734V34ZM697.172 19.4375H699.312V25.8125H702.266C702.453 21.3333 703.901 19.0938 706.609 19.0938C709.516 19.0938 710.969 21.6406 710.969 26.7344C710.969 31.8177 709.516 34.3594 706.609 34.3594C703.859 34.3594 702.411 32.1146 702.266 27.625H699.312V34H697.172V19.4375ZM706.609 32.625C708.089 32.625 708.828 30.6615 708.828 26.7344C708.828 22.8281 708.089 20.875 706.609 20.875C705.141 20.875 704.406 22.8281 704.406 26.7344C704.406 30.6615 705.141 32.625 706.609 32.625Z" fill="black"/>
<path d="M472.203 22.3906C471.609 21.401 470.875 20.9062 470 20.9062C469.229 20.9062 468.651 21.3542 468.266 22.25C467.891 23.1458 467.703 24.6406 467.703 26.7344C467.703 28.8281 467.891 30.3177 468.266 31.2031C468.651 32.0885 469.229 32.5312 470 32.5312C470.875 32.5312 471.609 32.0417 472.203 31.0625V22.3906ZM472.203 33.0156C471.651 33.9115 470.917 34.3594 470 34.3594C468.51 34.3594 467.396 33.7031 466.656 32.3906C465.917 31.0781 465.547 29.1927 465.547 26.7344C465.547 24.2865 465.917 22.401 466.656 21.0781C467.396 19.7552 468.51 19.0938 470 19.0938C470.917 19.0938 471.651 19.5417 472.203 20.4375V13.6094H474.359V20.4375C474.911 19.5417 475.646 19.0938 476.562 19.0938C478.052 19.0938 479.167 19.7552 479.906 21.0781C480.646 22.401 481.016 24.2865 481.016 26.7344C481.016 29.1927 480.646 31.0781 479.906 32.3906C479.167 33.7031 478.052 34.3594 476.562 34.3594C475.646 34.3594 474.911 33.9115 474.359 33.0156V39.8281H472.203V33.0156ZM474.359 31.0625C474.953 32.0417 475.688 32.5312 476.562 32.5312C477.333 32.5312 477.906 32.0885 478.281 31.2031C478.667 30.3177 478.859 28.8281 478.859 26.7344C478.859 24.6406 478.667 23.1458 478.281 22.25C477.906 21.3542 477.333 20.9062 476.562 20.9062C475.688 20.9062 474.953 21.401 474.359 22.3906V31.0625ZM498.406 26.7656C498.406 27.901 498.224 28.9323 497.859 29.8594C497.505 30.7865 496.99 31.5833 496.312 32.25C495.646 32.9062 494.844 33.4219 493.906 33.7969C492.969 34.1719 491.922 34.3594 490.766 34.3594C489.63 34.3594 488.594 34.1719 487.656 33.7969C486.719 33.4219 485.911 32.9062 485.234 32.25C484.568 31.5833 484.052 30.7865 483.688 29.8594C483.333 28.9323 483.156 27.901 483.156 26.7656C483.156 25.6615 483.333 24.6354 483.688 23.6875C484.052 22.7292 484.568 21.9167 485.234 21.25C485.911 20.5729 486.719 20.0469 487.656 19.6719C488.594 19.2865 489.63 19.0938 490.766 19.0938C491.922 19.0938 492.969 19.2865 493.906 19.6719C494.844 20.0469 495.646 20.5729 496.312 21.25C496.99 21.9167 497.505 22.7292 497.859 23.6875C498.224 24.6354 498.406 25.6615 498.406 26.7656ZM496.266 26.7656C496.266 25.9323 496.141 25.1667 495.891 24.4688C495.651 23.7604 495.292 23.1406 494.812 22.6094C494.333 22.0781 493.75 21.6615 493.062 21.3594C492.385 21.0573 491.62 20.9062 490.766 20.9062C489.911 20.9062 489.141 21.0573 488.453 21.3594C487.776 21.6615 487.203 22.0781 486.734 22.6094C486.266 23.1406 485.906 23.7604 485.656 24.4688C485.417 25.1667 485.297 25.9323 485.297 26.7656C485.297 27.599 485.417 28.3698 485.656 29.0781C485.906 29.776 486.266 30.3802 486.734 30.8906C487.203 31.401 487.776 31.8021 488.453 32.0938C489.141 32.3854 489.911 32.5312 490.766 32.5312C491.62 32.5312 492.385 32.3854 493.062 32.0938C493.75 31.8021 494.333 31.401 494.812 30.8906C495.292 30.3802 495.651 29.776 495.891 29.0781C496.141 28.3698 496.266 27.599 496.266 26.7656ZM515.5 26.7344C515.5 27.8698 515.323 28.901 514.969 29.8281C514.615 30.7552 514.115 31.5573 513.469 32.2344C512.833 32.901 512.062 33.4219 511.156 33.7969C510.25 34.1719 509.234 34.3594 508.109 34.3594C507.339 34.3594 506.589 34.2188 505.859 33.9375C505.141 33.6562 504.469 33.2396 503.844 32.6875V39.8281H501.703V19.4375H503.844V20.7812C505.167 19.6562 506.589 19.0938 508.109 19.0938C509.234 19.0938 510.25 19.2812 511.156 19.6562C512.062 20.0208 512.833 20.5469 513.469 21.2344C514.115 21.9115 514.615 22.724 514.969 23.6719C515.323 24.6094 515.5 25.6302 515.5 26.7344ZM513.359 26.7344C513.359 25.9219 513.245 25.1615 513.016 24.4531C512.797 23.7344 512.464 23.1146 512.016 22.5938C511.568 22.0729 511.016 21.6615 510.359 21.3594C509.714 21.0573 508.964 20.9062 508.109 20.9062C507.297 20.9062 506.536 21.0573 505.828 21.3594C505.13 21.6615 504.469 22.151 503.844 22.8281V30.6406C504.469 31.3177 505.13 31.8021 505.828 32.0938C506.536 32.3854 507.297 32.5312 508.109 32.5312C508.964 32.5312 509.714 32.3802 510.359 32.0781C511.016 31.776 511.568 31.3646 512.016 30.8438C512.464 30.3229 512.797 29.7135 513.016 29.0156C513.245 28.3073 513.359 27.5469 513.359 26.7344ZM532.203 34H530.047V22.4531L526.469 30H524.938L521.312 22.4531V34H519.172V19.4375H521.953L525.703 27.0312L529.422 19.4375H532.203V34ZM548.297 19.4375H550.438V34H548.297V19.4375ZM538.016 25.2656H540.516C542.12 25.2656 543.339 25.6146 544.172 26.3125C545.016 27 545.438 28.099 545.438 29.6094C545.438 31.1302 545.016 32.2448 544.172 32.9531C543.339 33.651 542.13 34 540.547 34H535.875V19.4375H538.016V25.2656ZM543.297 29.6094C543.297 28.8073 543.057 28.1875 542.578 27.75C542.099 27.3125 541.422 27.0938 540.547 27.0938H538.016V32.1719H540.547C541.422 32.1719 542.099 31.9479 542.578 31.5C543.057 31.0521 543.297 30.4219 543.297 29.6094Z" fill="black"/>
<path d="M194.766 19.4375H196.906V31.1875L204.781 19.4375H207.797V34H205.641V21.7188L197.422 34H194.766V19.4375ZM225.266 23.4375C225.266 24.1458 225.016 24.8125 224.516 25.4375C224.026 26.0521 223.271 26.4427 222.25 26.6094C223.208 26.7969 223.979 27.2031 224.562 27.8281C225.156 28.4427 225.453 29.125 225.453 29.875C225.453 30.5729 225.266 31.2031 224.891 31.7656C224.516 32.3177 224 32.7865 223.344 33.1719C222.698 33.5573 221.932 33.849 221.047 34.0469C220.161 34.2552 219.198 34.3594 218.156 34.3594C216.49 34.3594 215.115 34.1042 214.031 33.5938C212.958 33.0729 212.094 32.2917 211.438 31.25L212.938 30.2188C213.427 30.9688 214.099 31.5417 214.953 31.9375C215.807 32.3333 216.875 32.5312 218.156 32.5312C219.688 32.5312 220.927 32.2969 221.875 31.8281C222.833 31.3594 223.312 30.7083 223.312 29.875C223.312 29.5938 223.219 29.3125 223.031 29.0312C222.854 28.7396 222.589 28.4844 222.234 28.2656C221.88 28.0365 221.443 27.8542 220.922 27.7188C220.401 27.5729 219.786 27.5 219.078 27.5H216.641V25.6875H219.078C220.443 25.6875 221.453 25.4479 222.109 24.9688C222.776 24.4792 223.109 23.9688 223.109 23.4375C223.109 22.6667 222.682 22.0521 221.828 21.5938C220.984 21.1354 219.823 20.9062 218.344 20.9062C217.115 20.9062 216.099 21.125 215.297 21.5625C214.495 22 213.88 22.5833 213.453 23.3125L211.859 22.2188C212.495 21.1771 213.333 20.3958 214.375 19.875C215.427 19.3542 216.75 19.0938 218.344 19.0938C219.354 19.0938 220.276 19.1979 221.109 19.4062C221.953 19.6042 222.682 19.8906 223.297 20.2656C223.922 20.6302 224.406 21.0885 224.75 21.6406C225.094 22.1823 225.266 22.7812 225.266 23.4375ZM243.875 26.7656C243.875 27.901 243.693 28.9323 243.328 29.8594C242.974 30.7865 242.458 31.5833 241.781 32.25C241.115 32.9062 240.312 33.4219 239.375 33.7969C238.438 34.1719 237.391 34.3594 236.234 34.3594C235.099 34.3594 234.062 34.1719 233.125 33.7969C232.188 33.4219 231.38 32.9062 230.703 32.25C230.036 31.5833 229.521 30.7865 229.156 29.8594C228.802 28.9323 228.625 27.901 228.625 26.7656C228.625 25.6615 228.802 24.6354 229.156 23.6875C229.521 22.7292 230.036 21.9167 230.703 21.25C231.38 20.5729 232.188 20.0469 233.125 19.6719C234.062 19.2865 235.099 19.0938 236.234 19.0938C237.391 19.0938 238.438 19.2865 239.375 19.6719C240.312 20.0469 241.115 20.5729 241.781 21.25C242.458 21.9167 242.974 22.7292 243.328 23.6875C243.693 24.6354 243.875 25.6615 243.875 26.7656ZM241.734 26.7656C241.734 25.9323 241.609 25.1667 241.359 24.4688C241.12 23.7604 240.76 23.1406 240.281 22.6094C239.802 22.0781 239.219 21.6615 238.531 21.3594C237.854 21.0573 237.089 20.9062 236.234 20.9062C235.38 20.9062 234.609 21.0573 233.922 21.3594C233.245 21.6615 232.672 22.0781 232.203 22.6094C231.734 23.1406 231.375 23.7604 231.125 24.4688C230.885 25.1667 230.766 25.9323 230.766 26.7656C230.766 27.599 230.885 28.3698 231.125 29.0781C231.375 29.776 231.734 30.3802 232.203 30.8906C232.672 31.401 233.245 31.8021 233.922 32.0938C234.609 32.3854 235.38 32.5312 236.234 32.5312C237.089 32.5312 237.854 32.3854 238.531 32.0938C239.219 31.8021 239.802 31.401 240.281 30.8906C240.76 30.3802 241.12 29.776 241.359 29.0781C241.609 28.3698 241.734 27.599 241.734 26.7656ZM248.75 27.0625C248.75 28.7188 249.198 30.0469 250.094 31.0469C250.99 32.0365 252.224 32.5312 253.797 32.5312C254.526 32.5312 255.198 32.4062 255.812 32.1562C256.438 31.8958 256.974 31.526 257.422 31.0469C257.87 30.5573 258.214 29.9792 258.453 29.3125C258.703 28.6354 258.828 27.8854 258.828 27.0625C258.828 25.3958 258.391 24.0677 257.516 23.0781C256.641 22.0781 255.401 21.5781 253.797 21.5781C252.068 21.5781 250.792 22.0781 249.969 23.0781C249.156 24.0677 248.75 25.3958 248.75 27.0625ZM246.406 23.8281C246.406 22.2656 246.568 20.8385 246.891 19.5469C247.224 18.2552 247.688 17.1458 248.281 16.2188C248.885 15.2917 249.599 14.5677 250.422 14.0469C251.245 13.526 252.156 13.2656 253.156 13.2656C253.625 13.2656 254.021 13.3125 254.344 13.4062C254.667 13.5 254.953 13.6146 255.203 13.75C255.464 13.875 255.708 13.9844 255.938 14.0781C256.177 14.1719 256.458 14.2188 256.781 14.2188C257.208 14.2188 257.568 14.1458 257.859 14C258.161 13.8542 258.526 13.6094 258.953 13.2656L260.062 14.5469C259.615 14.974 259.089 15.3333 258.484 15.625C257.88 15.9062 257.312 16.0469 256.781 16.0469C256.375 16.0469 256.021 16 255.719 15.9062C255.417 15.8125 255.135 15.7031 254.875 15.5781C254.625 15.4427 254.365 15.3281 254.094 15.2344C253.833 15.1406 253.521 15.0938 253.156 15.0938C252.521 15.0938 251.922 15.2708 251.359 15.625C250.807 15.9688 250.323 16.474 249.906 17.1406C249.49 17.7969 249.161 18.5938 248.922 19.5312C248.693 20.4688 248.578 21.526 248.578 22.7031C248.839 22.2344 249.156 21.8177 249.531 21.4531C249.906 21.0885 250.323 20.7812 250.781 20.5312C251.24 20.2708 251.729 20.0781 252.25 19.9531C252.771 19.8281 253.286 19.7656 253.797 19.7656C254.818 19.7656 255.766 19.9219 256.641 20.2344C257.516 20.5365 258.271 20.9948 258.906 21.6094C259.552 22.2135 260.057 22.9688 260.422 23.875C260.786 24.7812 260.969 25.8438 260.969 27.0625C260.969 28.0833 260.786 29.0417 260.422 29.9375C260.057 30.8333 259.552 31.6094 258.906 32.2656C258.271 32.9115 257.516 33.4219 256.641 33.7969C255.766 34.1719 254.818 34.3594 253.797 34.3594C251.349 34.3594 249.505 33.5052 248.266 31.7969C247.026 30.0885 246.406 27.4323 246.406 23.8281ZM278.438 26.7344C278.438 27.8698 278.26 28.901 277.906 29.8281C277.552 30.7552 277.052 31.5573 276.406 32.2344C275.771 32.901 275 33.4219 274.094 33.7969C273.188 34.1719 272.172 34.3594 271.047 34.3594C270.276 34.3594 269.526 34.2188 268.797 33.9375C268.078 33.6562 267.406 33.2396 266.781 32.6875V39.8281H264.641V19.4375H266.781V20.7812C268.104 19.6562 269.526 19.0938 271.047 19.0938C272.172 19.0938 273.188 19.2812 274.094 19.6562C275 20.0208 275.771 20.5469 276.406 21.2344C277.052 21.9115 277.552 22.724 277.906 23.6719C278.26 24.6094 278.438 25.6302 278.438 26.7344ZM276.297 26.7344C276.297 25.9219 276.182 25.1615 275.953 24.4531C275.734 23.7344 275.401 23.1146 274.953 22.5938C274.505 22.0729 273.953 21.6615 273.297 21.3594C272.651 21.0573 271.901 20.9062 271.047 20.9062C270.234 20.9062 269.474 21.0573 268.766 21.3594C268.068 21.6615 267.406 22.151 266.781 22.8281V30.6406C267.406 31.3177 268.068 31.8021 268.766 32.0938C269.474 32.3854 270.234 32.5312 271.047 32.5312C271.901 32.5312 272.651 32.3802 273.297 32.0781C273.953 31.776 274.505 31.3646 274.953 30.8438C275.401 30.3229 275.734 29.7135 275.953 29.0156C276.182 28.3073 276.297 27.5469 276.297 26.7344ZM281.312 30.0625C281.312 29.1458 281.542 28.3802 282 27.7656C282.458 27.1406 283.057 26.651 283.797 26.2969C284.547 25.9323 285.401 25.6719 286.359 25.5156C287.328 25.349 288.312 25.2656 289.312 25.2656C289.698 25.2656 290.042 25.2708 290.344 25.2812C290.656 25.2917 290.948 25.3073 291.219 25.3281C291.5 25.349 291.781 25.375 292.062 25.4062C292.344 25.4375 292.651 25.474 292.984 25.5156V24.4688C292.984 23.7604 292.828 23.1771 292.516 22.7188C292.214 22.2604 291.839 21.901 291.391 21.6406C290.943 21.3698 290.474 21.1823 289.984 21.0781C289.495 20.9635 289.078 20.9062 288.734 20.9062C287.651 20.9062 286.651 21.0521 285.734 21.3438C284.818 21.6354 283.964 22.026 283.172 22.5156L282.203 20.9062C283.078 20.375 284.057 19.9427 285.141 19.6094C286.234 19.2656 287.432 19.0938 288.734 19.0938C289.526 19.0938 290.302 19.1979 291.062 19.4062C291.833 19.6042 292.521 19.9167 293.125 20.3438C293.74 20.7604 294.229 21.3125 294.594 22C294.958 22.6875 295.141 23.5104 295.141 24.4688V34H292.984V31.5625C292.609 32.0312 292.182 32.4427 291.703 32.7969C291.234 33.151 290.74 33.4427 290.219 33.6719C289.698 33.8906 289.177 34.0573 288.656 34.1719C288.135 34.2969 287.641 34.3594 287.172 34.3594C285.245 34.3594 283.786 33.9896 282.797 33.25C281.807 32.5104 281.312 31.4479 281.312 30.0625ZM287.172 32.5312C288.068 32.5312 288.87 32.401 289.578 32.1406C290.297 31.8698 290.906 31.5365 291.406 31.1406C291.906 30.7448 292.292 30.3229 292.562 29.875C292.844 29.4271 292.984 29.0208 292.984 28.6562V27.2812C292.286 27.1771 291.615 27.1198 290.969 27.1094C290.333 27.099 289.781 27.0938 289.312 27.0938C288.542 27.0938 287.797 27.1458 287.078 27.25C286.37 27.3542 285.75 27.526 285.219 27.7656C284.688 27.9948 284.26 28.2969 283.938 28.6719C283.615 29.0469 283.453 29.5104 283.453 30.0625C283.453 30.6771 283.75 31.2448 284.344 31.7656C284.948 32.276 285.891 32.5312 287.172 32.5312ZM303.031 25.8125L298.562 19.4375H300.953L305.016 25.5781V19.4375H307.172V25.5781L311.234 19.4375H313.625L309.156 25.8125L313.625 34H311.328L307.938 27.4688L307.172 28.5938V34H305.016V28.5938L304.25 27.4688L300.859 34H298.562L303.031 25.8125ZM318.422 27.4688C318.578 29.0104 319.141 30.2396 320.109 31.1562C321.078 32.0729 322.339 32.5312 323.891 32.5312C324.984 32.5312 325.958 32.3073 326.812 31.8594C327.667 31.4115 328.307 30.8542 328.734 30.1875L330.234 31.2188C329.505 32.2396 328.635 33.0208 327.625 33.5625C326.615 34.0938 325.37 34.3594 323.891 34.3594C322.766 34.3594 321.734 34.1719 320.797 33.7969C319.859 33.4219 319.047 32.901 318.359 32.2344C317.682 31.5573 317.156 30.7552 316.781 29.8281C316.406 28.901 316.219 27.8698 316.219 26.7344C316.219 25.6302 316.385 24.6146 316.719 23.6875C317.062 22.75 317.552 21.9427 318.188 21.2656C318.833 20.5781 319.615 20.0469 320.531 19.6719C321.448 19.2865 322.474 19.0938 323.609 19.0938C324.849 19.0938 325.932 19.3021 326.859 19.7188C327.786 20.1354 328.557 20.7135 329.172 21.4531C329.797 22.1823 330.255 23.0573 330.547 24.0781C330.849 25.099 331 26.2292 331 27.4688H318.422ZM328.734 25.6406C328.495 24.0469 327.917 22.8594 327 22.0781C326.083 21.2969 324.953 20.9062 323.609 20.9062C322.922 20.9062 322.286 21.0208 321.703 21.25C321.12 21.4688 320.604 21.7865 320.156 22.2031C319.708 22.6198 319.333 23.125 319.031 23.7188C318.729 24.3021 318.536 24.9427 318.453 25.6406H328.734ZM347.547 34H345.391V27.4688H336.656V34H334.516V19.4375H336.656V25.6406H345.391V19.4375H347.547V34ZM351.984 19.4375H354.125V31.1875L362 19.4375H365.016V34H362.859V21.7188L354.641 34H351.984V19.4375ZM374.094 28.1719C372.365 28.0885 371.036 27.7031 370.109 27.0156C369.182 26.3177 368.719 25.2552 368.719 23.8281C368.719 22.3073 369.234 21.1979 370.266 20.5C371.307 19.7917 372.797 19.4375 374.734 19.4375H382.484V34H380.328V28.1719H376.844L371.531 34H368.5L374.094 28.1719ZM370.859 23.8281C370.859 24.6406 371.203 25.2656 371.891 25.7031C372.589 26.1406 373.547 26.3594 374.766 26.3594H380.328V21.2656H374.766C373.547 21.2656 372.589 21.4896 371.891 21.9375C371.203 22.3854 370.859 23.0156 370.859 23.8281Z" fill="black"/>
<ellipse cx="160.819" cy="30.8213" rx="6.41112" ry="7.93978" transform="rotate(-20.202 160.819 30.8213)" fill="#F94500"/>
<ellipse cx="155.225" cy="17.5525" rx="6.41112" ry="7.93978" transform="rotate(-18.3189 155.225 17.5525)" fill="#F94500"/>
<ellipse cx="165.078" cy="21.8399" rx="6.41112" ry="7.93978" transform="rotate(64.6059 165.078 21.8399)" fill="#F94500"/>
<ellipse cx="151.923" cy="27.2591" rx="6.41112" ry="7.93978" transform="rotate(-115.42 151.923 27.2591)" fill="#F94500"/>
<circle cx="158.638" cy="24.6385" r="3.48247" fill="#FFDB15"/>
<path d="M411.561 35.259C421.364 21.2576 427.041 11.1338 427.832 11.9831C429.77 13.8142 430.913 40.0154 428.921 39.7092C425.528 39.2435 412.935 24.965 411.636 19.1771C410.641 14.7434 440.154 24.1724 437.623 26.0262C435.685 28.1336 423.953 31.1684 413.065 34.8338" stroke="#826DEE" stroke-width="3" stroke-linecap="round"/>
<path d="M999.639 39.921C993.461 23.9845 988.209 13.6338 989.355 13.449C991.955 12.858 1014.36 26.4898 1013 27.9739C1010.72 30.5337 991.851 33.0506 986.319 30.9088C982.082 29.2681 1006.34 9.99518 1006.47 13.1292C1007.14 15.9122 1003.14 27.3486 1000.12 38.4347" stroke="#F94500" stroke-width="3" stroke-linecap="round"/>
<path d="M599.031 33.2837L603.52 15.5375" stroke="#FFDB15" stroke-width="4" stroke-linecap="round"/>
<path d="M606.194 32.4268L596.297 16.0144" stroke="#F94500" stroke-width="4" stroke-linecap="round"/>
<path d="M592.752 29.2274L609.553 19.9067" stroke="#F94500" stroke-width="4" stroke-linecap="round"/>
<path d="M610.772 26.7683L591.362 21.4083" stroke="#FFDB15" stroke-width="4" stroke-linecap="round"/>
<path d="M749.501 22.6485C747.648 25.4958 742.257 28.9893 742.979 28.7549C743.7 28.5205 748.997 29.1058 752.118 30.7033C754.586 32.4859 758.273 36.1468 758.507 36.8681C758.741 37.5895 758.937 30.352 759.812 28.2036C761.057 24.8682 765.46 21.4509 766.542 21.0994C767.624 20.7479 760.844 21.5514 757.195 20.1488C754.016 18.7236 750.539 12.343 750.734 12.9441C750.93 13.5452 751.055 18.8278 749.501 22.6485Z" stroke="#826DEE" stroke-width="3" stroke-linecap="round"/>
<rect x="1024" width="1024" height="48" fill="#FF99DC"/>
<path d="M1060.53 34H1057.48L1051.53 27.4688L1048.91 29.875V34H1046.77V19.4375H1048.91V27.2812L1057.2 19.4375H1060.27L1052.97 26.125L1060.53 34ZM1077.27 34H1075.11V27.4688H1066.38V34H1064.23V19.4375H1066.38V25.6406H1075.11V19.4375H1077.27V34ZM1095.88 26.7656C1095.88 27.901 1095.69 28.9323 1095.33 29.8594C1094.97 30.7865 1094.46 31.5833 1093.78 32.25C1093.11 32.9062 1092.31 33.4219 1091.38 33.7969C1090.44 34.1719 1089.39 34.3594 1088.23 34.3594C1087.1 34.3594 1086.06 34.1719 1085.12 33.7969C1084.19 33.4219 1083.38 32.9062 1082.7 32.25C1082.04 31.5833 1081.52 30.7865 1081.16 29.8594C1080.8 28.9323 1080.62 27.901 1080.62 26.7656C1080.62 25.6615 1080.8 24.6354 1081.16 23.6875C1081.52 22.7292 1082.04 21.9167 1082.7 21.25C1083.38 20.5729 1084.19 20.0469 1085.12 19.6719C1086.06 19.2865 1087.1 19.0938 1088.23 19.0938C1089.39 19.0938 1090.44 19.2865 1091.38 19.6719C1092.31 20.0469 1093.11 20.5729 1093.78 21.25C1094.46 21.9167 1094.97 22.7292 1095.33 23.6875C1095.69 24.6354 1095.88 25.6615 1095.88 26.7656ZM1093.73 26.7656C1093.73 25.9323 1093.61 25.1667 1093.36 24.4688C1093.12 23.7604 1092.76 23.1406 1092.28 22.6094C1091.8 22.0781 1091.22 21.6615 1090.53 21.3594C1089.85 21.0573 1089.09 20.9062 1088.23 20.9062C1087.38 20.9062 1086.61 21.0573 1085.92 21.3594C1085.24 21.6615 1084.67 22.0781 1084.2 22.6094C1083.73 23.1406 1083.38 23.7604 1083.12 24.4688C1082.89 25.1667 1082.77 25.9323 1082.77 26.7656C1082.77 27.599 1082.89 28.3698 1083.12 29.0781C1083.38 29.776 1083.73 30.3802 1084.2 30.8906C1084.67 31.401 1085.24 31.8021 1085.92 32.0938C1086.61 32.3854 1087.38 32.5312 1088.23 32.5312C1089.09 32.5312 1089.85 32.3854 1090.53 32.0938C1091.22 31.8021 1091.8 31.401 1092.28 30.8906C1092.76 30.3802 1093.12 29.776 1093.36 29.0781C1093.61 28.3698 1093.73 27.599 1093.73 26.7656ZM1112.2 34H1110.05V21.2656H1101.31V34H1099.17V19.4375H1112.2V34ZM1130.41 34H1127.36L1121.41 27.4688L1118.78 29.875V34H1116.64V19.4375H1118.78V27.2812L1127.08 19.4375H1130.14L1122.84 26.125L1130.41 34ZM1134.11 19.4375H1136.25V31.1875L1144.12 19.4375H1147.14V34H1144.98V21.7188L1136.77 34H1134.11V19.4375Z" fill="black"/>
<path d="M1836.8 32H1834.64V19.2656H1825.91V32H1823.77V17.4375H1836.8V32ZM1855.03 24.7344C1855.03 25.8698 1854.85 26.901 1854.5 27.8281C1854.15 28.7552 1853.65 29.5573 1853 30.2344C1852.36 30.901 1851.59 31.4219 1850.69 31.7969C1849.78 32.1719 1848.77 32.3594 1847.64 32.3594C1846.87 32.3594 1846.12 32.2188 1845.39 31.9375C1844.67 31.6562 1844 31.2396 1843.38 30.6875V37.8281H1841.23V17.4375H1843.38V18.7812C1844.7 17.6562 1846.12 17.0938 1847.64 17.0938C1848.77 17.0938 1849.78 17.2812 1850.69 17.6562C1851.59 18.0208 1852.36 18.5469 1853 19.2344C1853.65 19.9115 1854.15 20.724 1854.5 21.6719C1854.85 22.6094 1855.03 23.6302 1855.03 24.7344ZM1852.89 24.7344C1852.89 23.9219 1852.78 23.1615 1852.55 22.4531C1852.33 21.7344 1851.99 21.1146 1851.55 20.5938C1851.1 20.0729 1850.55 19.6615 1849.89 19.3594C1849.24 19.0573 1848.49 18.9062 1847.64 18.9062C1846.83 18.9062 1846.07 19.0573 1845.36 19.3594C1844.66 19.6615 1844 20.151 1843.38 20.8281V28.6406C1844 29.3177 1844.66 29.8021 1845.36 30.0938C1846.07 30.3854 1846.83 30.5312 1847.64 30.5312C1848.49 30.5312 1849.24 30.3802 1849.89 30.0781C1850.55 29.776 1851.1 29.3646 1851.55 28.8438C1851.99 28.3229 1852.33 27.7135 1852.55 27.0156C1852.78 26.3073 1852.89 25.5469 1852.89 24.7344ZM1872.88 24.7656C1872.88 25.901 1872.69 26.9323 1872.33 27.8594C1871.97 28.7865 1871.46 29.5833 1870.78 30.25C1870.11 30.9062 1869.31 31.4219 1868.38 31.7969C1867.44 32.1719 1866.39 32.3594 1865.23 32.3594C1864.1 32.3594 1863.06 32.1719 1862.12 31.7969C1861.19 31.4219 1860.38 30.9062 1859.7 30.25C1859.04 29.5833 1858.52 28.7865 1858.16 27.8594C1857.8 26.9323 1857.62 25.901 1857.62 24.7656C1857.62 23.6615 1857.8 22.6354 1858.16 21.6875C1858.52 20.7292 1859.04 19.9167 1859.7 19.25C1860.38 18.5729 1861.19 18.0469 1862.12 17.6719C1863.06 17.2865 1864.1 17.0938 1865.23 17.0938C1866.39 17.0938 1867.44 17.2865 1868.38 17.6719C1869.31 18.0469 1870.11 18.5729 1870.78 19.25C1871.46 19.9167 1871.97 20.7292 1872.33 21.6875C1872.69 22.6354 1872.88 23.6615 1872.88 24.7656ZM1870.73 24.7656C1870.73 23.9323 1870.61 23.1667 1870.36 22.4688C1870.12 21.7604 1869.76 21.1406 1869.28 20.6094C1868.8 20.0781 1868.22 19.6615 1867.53 19.3594C1866.85 19.0573 1866.09 18.9062 1865.23 18.9062C1864.38 18.9062 1863.61 19.0573 1862.92 19.3594C1862.24 19.6615 1861.67 20.0781 1861.2 20.6094C1860.73 21.1406 1860.38 21.7604 1860.12 22.4688C1859.89 23.1667 1859.77 23.9323 1859.77 24.7656C1859.77 25.599 1859.89 26.3698 1860.12 27.0781C1860.38 27.776 1860.73 28.3802 1861.2 28.8906C1861.67 29.401 1862.24 29.8021 1862.92 30.0938C1863.61 30.3854 1864.38 30.5312 1865.23 30.5312C1866.09 30.5312 1866.85 30.3854 1867.53 30.0938C1868.22 29.8021 1868.8 29.401 1869.28 28.8906C1869.76 28.3802 1870.12 27.776 1870.36 27.0781C1870.61 26.3698 1870.73 25.599 1870.73 24.7656ZM1889.94 32H1886.89L1880.94 25.4688L1878.31 27.875V32H1876.17V17.4375H1878.31V25.2812L1886.61 17.4375H1889.67L1882.38 24.125L1889.94 32ZM1907.44 24.7344C1907.44 25.8698 1907.26 26.901 1906.91 27.8281C1906.55 28.7552 1906.05 29.5573 1905.41 30.2344C1904.77 30.901 1904 31.4219 1903.09 31.7969C1902.19 32.1719 1901.17 32.3594 1900.05 32.3594C1899.28 32.3594 1898.53 32.2188 1897.8 31.9375C1897.08 31.6562 1896.41 31.2396 1895.78 30.6875V37.8281H1893.64V17.4375H1895.78V18.7812C1897.1 17.6562 1898.53 17.0938 1900.05 17.0938C1901.17 17.0938 1902.19 17.2812 1903.09 17.6562C1904 18.0208 1904.77 18.5469 1905.41 19.2344C1906.05 19.9115 1906.55 20.724 1906.91 21.6719C1907.26 22.6094 1907.44 23.6302 1907.44 24.7344ZM1905.3 24.7344C1905.3 23.9219 1905.18 23.1615 1904.95 22.4531C1904.73 21.7344 1904.4 21.1146 1903.95 20.5938C1903.51 20.0729 1902.95 19.6615 1902.3 19.3594C1901.65 19.0573 1900.9 18.9062 1900.05 18.9062C1899.23 18.9062 1898.47 19.0573 1897.77 19.3594C1897.07 19.6615 1896.41 20.151 1895.78 20.8281V28.6406C1896.41 29.3177 1897.07 29.8021 1897.77 30.0938C1898.47 30.3854 1899.23 30.5312 1900.05 30.5312C1900.9 30.5312 1901.65 30.3802 1902.3 30.0781C1902.95 29.776 1903.51 29.3646 1903.95 28.8438C1904.4 28.3229 1904.73 27.7135 1904.95 27.0156C1905.18 26.3073 1905.3 25.5469 1905.3 24.7344ZM1925.36 17.4375L1917.48 35.6875C1917.08 36.7083 1916.51 37.375 1915.77 37.6875C1915.03 38.0104 1914.21 38.1719 1913.31 38.1719C1912.31 38.1719 1911.31 37.9896 1910.31 37.625L1910.73 35.7812C1911.22 35.9896 1911.7 36.1354 1912.17 36.2188C1912.64 36.3125 1913.02 36.3594 1913.31 36.3594C1914.02 36.3594 1914.51 36.1875 1914.77 35.8438C1915.04 35.5 1915.27 35.0938 1915.47 34.625L1916.36 32.4219L1909.86 17.4375H1912.39L1917.64 30.1719L1922.8 17.4375H1925.36ZM1942.38 24.3125H1940.55V19.2656H1936.17V30.1719H1939.45V32H1930.72V30.1719H1934.02V19.2656H1929.64V24.3125H1927.81V17.4375H1942.38V24.3125ZM1959.81 32H1956.77L1950.81 25.4688L1948.19 27.875V32H1946.05V17.4375H1948.19V25.2812L1956.48 17.4375H1959.55L1952.25 24.125L1959.81 32ZM1962.72 28.0625C1962.72 27.1458 1962.95 26.3802 1963.41 25.7656C1963.86 25.1406 1964.46 24.651 1965.2 24.2969C1965.95 23.9323 1966.81 23.6719 1967.77 23.5156C1968.73 23.349 1969.72 23.2656 1970.72 23.2656C1971.1 23.2656 1971.45 23.2708 1971.75 23.2812C1972.06 23.2917 1972.35 23.3073 1972.62 23.3281C1972.91 23.349 1973.19 23.375 1973.47 23.4062C1973.75 23.4375 1974.06 23.474 1974.39 23.5156V22.4688C1974.39 21.7604 1974.23 21.1771 1973.92 20.7188C1973.62 20.2604 1973.24 19.901 1972.8 19.6406C1972.35 19.3698 1971.88 19.1823 1971.39 19.0781C1970.9 18.9635 1970.48 18.9062 1970.14 18.9062C1969.06 18.9062 1968.06 19.0521 1967.14 19.3438C1966.22 19.6354 1965.37 20.026 1964.58 20.5156L1963.61 18.9062C1964.48 18.375 1965.46 17.9427 1966.55 17.6094C1967.64 17.2656 1968.84 17.0938 1970.14 17.0938C1970.93 17.0938 1971.71 17.1979 1972.47 17.4062C1973.24 17.6042 1973.93 17.9167 1974.53 18.3438C1975.15 18.7604 1975.64 19.3125 1976 20C1976.36 20.6875 1976.55 21.5104 1976.55 22.4688V32H1974.39V29.5625C1974.02 30.0312 1973.59 30.4427 1973.11 30.7969C1972.64 31.151 1972.15 31.4427 1971.62 31.6719C1971.1 31.8906 1970.58 32.0573 1970.06 32.1719C1969.54 32.2969 1969.05 32.3594 1968.58 32.3594C1966.65 32.3594 1965.19 31.9896 1964.2 31.25C1963.21 30.5104 1962.72 29.4479 1962.72 28.0625ZM1968.58 30.5312C1969.47 30.5312 1970.28 30.401 1970.98 30.1406C1971.7 29.8698 1972.31 29.5365 1972.81 29.1406C1973.31 28.7448 1973.7 28.3229 1973.97 27.875C1974.25 27.4271 1974.39 27.0208 1974.39 26.6562V25.2812C1973.69 25.1771 1973.02 25.1198 1972.38 25.1094C1971.74 25.099 1971.19 25.0938 1970.72 25.0938C1969.95 25.0938 1969.2 25.1458 1968.48 25.25C1967.78 25.3542 1967.16 25.526 1966.62 25.7656C1966.09 25.9948 1965.67 26.2969 1965.34 26.6719C1965.02 27.0469 1964.86 27.5104 1964.86 28.0625C1964.86 28.6771 1965.16 29.2448 1965.75 29.7656C1966.35 30.276 1967.3 30.5312 1968.58 30.5312Z" fill="black"/>
<path d="M1681.8 34H1679.64V22.4531L1676.06 30H1674.53L1670.91 22.4531V34H1668.77V19.4375H1671.55L1675.3 27.0312L1679.02 19.4375H1681.8V34ZM1687.61 27.4688C1687.77 29.0104 1688.33 30.2396 1689.3 31.1562C1690.27 32.0729 1691.53 32.5312 1693.08 32.5312C1694.17 32.5312 1695.15 32.3073 1696 31.8594C1696.85 31.4115 1697.49 30.8542 1697.92 30.1875L1699.42 31.2188C1698.69 32.2396 1697.82 33.0208 1696.81 33.5625C1695.8 34.0938 1694.56 34.3594 1693.08 34.3594C1691.95 34.3594 1690.92 34.1719 1689.98 33.7969C1689.05 33.4219 1688.23 32.901 1687.55 32.2344C1686.87 31.5573 1686.34 30.7552 1685.97 29.8281C1685.59 28.901 1685.41 27.8698 1685.41 26.7344C1685.41 25.6302 1685.57 24.6146 1685.91 23.6875C1686.25 22.75 1686.74 21.9427 1687.38 21.2656C1688.02 20.5781 1688.8 20.0469 1689.72 19.6719C1690.64 19.2865 1691.66 19.0938 1692.8 19.0938C1694.04 19.0938 1695.12 19.3021 1696.05 19.7188C1696.97 20.1354 1697.74 20.7135 1698.36 21.4531C1698.98 22.1823 1699.44 23.0573 1699.73 24.0781C1700.04 25.099 1700.19 26.2292 1700.19 27.4688H1687.61ZM1697.92 25.6406C1697.68 24.0469 1697.1 22.8594 1696.19 22.0781C1695.27 21.2969 1694.14 20.9062 1692.8 20.9062C1692.11 20.9062 1691.47 21.0208 1690.89 21.25C1690.31 21.4688 1689.79 21.7865 1689.34 22.2031C1688.9 22.6198 1688.52 23.125 1688.22 23.7188C1687.92 24.3021 1687.72 24.9427 1687.64 25.6406H1697.92ZM1716.73 34H1714.58V27.4688H1705.84V34H1703.7V19.4375H1705.84V25.6406H1714.58V19.4375H1716.73V34ZM1721.17 19.4375H1723.31V25.8125H1726.27C1726.45 21.3333 1727.9 19.0938 1730.61 19.0938C1733.52 19.0938 1734.97 21.6406 1734.97 26.7344C1734.97 31.8177 1733.52 34.3594 1730.61 34.3594C1727.86 34.3594 1726.41 32.1146 1726.27 27.625H1723.31V34H1721.17V19.4375ZM1730.61 32.625C1732.09 32.625 1732.83 30.6615 1732.83 26.7344C1732.83 22.8281 1732.09 20.875 1730.61 20.875C1729.14 20.875 1728.41 22.8281 1728.41 26.7344C1728.41 30.6615 1729.14 32.625 1730.61 32.625Z" fill="black"/>
<path d="M1496.2 22.3906C1495.61 21.401 1494.88 20.9062 1494 20.9062C1493.23 20.9062 1492.65 21.3542 1492.27 22.25C1491.89 23.1458 1491.7 24.6406 1491.7 26.7344C1491.7 28.8281 1491.89 30.3177 1492.27 31.2031C1492.65 32.0885 1493.23 32.5312 1494 32.5312C1494.88 32.5312 1495.61 32.0417 1496.2 31.0625V22.3906ZM1496.2 33.0156C1495.65 33.9115 1494.92 34.3594 1494 34.3594C1492.51 34.3594 1491.4 33.7031 1490.66 32.3906C1489.92 31.0781 1489.55 29.1927 1489.55 26.7344C1489.55 24.2865 1489.92 22.401 1490.66 21.0781C1491.4 19.7552 1492.51 19.0938 1494 19.0938C1494.92 19.0938 1495.65 19.5417 1496.2 20.4375V13.6094H1498.36V20.4375C1498.91 19.5417 1499.65 19.0938 1500.56 19.0938C1502.05 19.0938 1503.17 19.7552 1503.91 21.0781C1504.65 22.401 1505.02 24.2865 1505.02 26.7344C1505.02 29.1927 1504.65 31.0781 1503.91 32.3906C1503.17 33.7031 1502.05 34.3594 1500.56 34.3594C1499.65 34.3594 1498.91 33.9115 1498.36 33.0156V39.8281H1496.2V33.0156ZM1498.36 31.0625C1498.95 32.0417 1499.69 32.5312 1500.56 32.5312C1501.33 32.5312 1501.91 32.0885 1502.28 31.2031C1502.67 30.3177 1502.86 28.8281 1502.86 26.7344C1502.86 24.6406 1502.67 23.1458 1502.28 22.25C1501.91 21.3542 1501.33 20.9062 1500.56 20.9062C1499.69 20.9062 1498.95 21.401 1498.36 22.3906V31.0625ZM1522.41 26.7656C1522.41 27.901 1522.22 28.9323 1521.86 29.8594C1521.51 30.7865 1520.99 31.5833 1520.31 32.25C1519.65 32.9062 1518.84 33.4219 1517.91 33.7969C1516.97 34.1719 1515.92 34.3594 1514.77 34.3594C1513.63 34.3594 1512.59 34.1719 1511.66 33.7969C1510.72 33.4219 1509.91 32.9062 1509.23 32.25C1508.57 31.5833 1508.05 30.7865 1507.69 29.8594C1507.33 28.9323 1507.16 27.901 1507.16 26.7656C1507.16 25.6615 1507.33 24.6354 1507.69 23.6875C1508.05 22.7292 1508.57 21.9167 1509.23 21.25C1509.91 20.5729 1510.72 20.0469 1511.66 19.6719C1512.59 19.2865 1513.63 19.0938 1514.77 19.0938C1515.92 19.0938 1516.97 19.2865 1517.91 19.6719C1518.84 20.0469 1519.65 20.5729 1520.31 21.25C1520.99 21.9167 1521.51 22.7292 1521.86 23.6875C1522.22 24.6354 1522.41 25.6615 1522.41 26.7656ZM1520.27 26.7656C1520.27 25.9323 1520.14 25.1667 1519.89 24.4688C1519.65 23.7604 1519.29 23.1406 1518.81 22.6094C1518.33 22.0781 1517.75 21.6615 1517.06 21.3594C1516.39 21.0573 1515.62 20.9062 1514.77 20.9062C1513.91 20.9062 1513.14 21.0573 1512.45 21.3594C1511.78 21.6615 1511.2 22.0781 1510.73 22.6094C1510.27 23.1406 1509.91 23.7604 1509.66 24.4688C1509.42 25.1667 1509.3 25.9323 1509.3 26.7656C1509.3 27.599 1509.42 28.3698 1509.66 29.0781C1509.91 29.776 1510.27 30.3802 1510.73 30.8906C1511.2 31.401 1511.78 31.8021 1512.45 32.0938C1513.14 32.3854 1513.91 32.5312 1514.77 32.5312C1515.62 32.5312 1516.39 32.3854 1517.06 32.0938C1517.75 31.8021 1518.33 31.401 1518.81 30.8906C1519.29 30.3802 1519.65 29.776 1519.89 29.0781C1520.14 28.3698 1520.27 27.599 1520.27 26.7656ZM1539.5 26.7344C1539.5 27.8698 1539.32 28.901 1538.97 29.8281C1538.61 30.7552 1538.11 31.5573 1537.47 32.2344C1536.83 32.901 1536.06 33.4219 1535.16 33.7969C1534.25 34.1719 1533.23 34.3594 1532.11 34.3594C1531.34 34.3594 1530.59 34.2188 1529.86 33.9375C1529.14 33.6562 1528.47 33.2396 1527.84 32.6875V39.8281H1525.7V19.4375H1527.84V20.7812C1529.17 19.6562 1530.59 19.0938 1532.11 19.0938C1533.23 19.0938 1534.25 19.2812 1535.16 19.6562C1536.06 20.0208 1536.83 20.5469 1537.47 21.2344C1538.11 21.9115 1538.61 22.724 1538.97 23.6719C1539.32 24.6094 1539.5 25.6302 1539.5 26.7344ZM1537.36 26.7344C1537.36 25.9219 1537.24 25.1615 1537.02 24.4531C1536.8 23.7344 1536.46 23.1146 1536.02 22.5938C1535.57 22.0729 1535.02 21.6615 1534.36 21.3594C1533.71 21.0573 1532.96 20.9062 1532.11 20.9062C1531.3 20.9062 1530.54 21.0573 1529.83 21.3594C1529.13 21.6615 1528.47 22.151 1527.84 22.8281V30.6406C1528.47 31.3177 1529.13 31.8021 1529.83 32.0938C1530.54 32.3854 1531.3 32.5312 1532.11 32.5312C1532.96 32.5312 1533.71 32.3802 1534.36 32.0781C1535.02 31.776 1535.57 31.3646 1536.02 30.8438C1536.46 30.3229 1536.8 29.7135 1537.02 29.0156C1537.24 28.3073 1537.36 27.5469 1537.36 26.7344ZM1556.2 34H1554.05V22.4531L1550.47 30H1548.94L1545.31 22.4531V34H1543.17V19.4375H1545.95L1549.7 27.0312L1553.42 19.4375H1556.2V34ZM1572.3 19.4375H1574.44V34H1572.3V19.4375ZM1562.02 25.2656H1564.52C1566.12 25.2656 1567.34 25.6146 1568.17 26.3125C1569.02 27 1569.44 28.099 1569.44 29.6094C1569.44 31.1302 1569.02 32.2448 1568.17 32.9531C1567.34 33.651 1566.13 34 1564.55 34H1559.88V19.4375H1562.02V25.2656ZM1567.3 29.6094C1567.3 28.8073 1567.06 28.1875 1566.58 27.75C1566.1 27.3125 1565.42 27.0938 1564.55 27.0938H1562.02V32.1719H1564.55C1565.42 32.1719 1566.1 31.9479 1566.58 31.5C1567.06 31.0521 1567.3 30.4219 1567.3 29.6094Z" fill="black"/>
<path d="M1218.77 19.4375H1220.91V31.1875L1228.78 19.4375H1231.8V34H1229.64V21.7188L1221.42 34H1218.77V19.4375ZM1249.27 23.4375C1249.27 24.1458 1249.02 24.8125 1248.52 25.4375C1248.03 26.0521 1247.27 26.4427 1246.25 26.6094C1247.21 26.7969 1247.98 27.2031 1248.56 27.8281C1249.16 28.4427 1249.45 29.125 1249.45 29.875C1249.45 30.5729 1249.27 31.2031 1248.89 31.7656C1248.52 32.3177 1248 32.7865 1247.34 33.1719C1246.7 33.5573 1245.93 33.849 1245.05 34.0469C1244.16 34.2552 1243.2 34.3594 1242.16 34.3594C1240.49 34.3594 1239.11 34.1042 1238.03 33.5938C1236.96 33.0729 1236.09 32.2917 1235.44 31.25L1236.94 30.2188C1237.43 30.9688 1238.1 31.5417 1238.95 31.9375C1239.81 32.3333 1240.88 32.5312 1242.16 32.5312C1243.69 32.5312 1244.93 32.2969 1245.88 31.8281C1246.83 31.3594 1247.31 30.7083 1247.31 29.875C1247.31 29.5938 1247.22 29.3125 1247.03 29.0312C1246.85 28.7396 1246.59 28.4844 1246.23 28.2656C1245.88 28.0365 1245.44 27.8542 1244.92 27.7188C1244.4 27.5729 1243.79 27.5 1243.08 27.5H1240.64V25.6875H1243.08C1244.44 25.6875 1245.45 25.4479 1246.11 24.9688C1246.78 24.4792 1247.11 23.9688 1247.11 23.4375C1247.11 22.6667 1246.68 22.0521 1245.83 21.5938C1244.98 21.1354 1243.82 20.9062 1242.34 20.9062C1241.11 20.9062 1240.1 21.125 1239.3 21.5625C1238.49 22 1237.88 22.5833 1237.45 23.3125L1235.86 22.2188C1236.49 21.1771 1237.33 20.3958 1238.38 19.875C1239.43 19.3542 1240.75 19.0938 1242.34 19.0938C1243.35 19.0938 1244.28 19.1979 1245.11 19.4062C1245.95 19.6042 1246.68 19.8906 1247.3 20.2656C1247.92 20.6302 1248.41 21.0885 1248.75 21.6406C1249.09 22.1823 1249.27 22.7812 1249.27 23.4375ZM1267.88 26.7656C1267.88 27.901 1267.69 28.9323 1267.33 29.8594C1266.97 30.7865 1266.46 31.5833 1265.78 32.25C1265.11 32.9062 1264.31 33.4219 1263.38 33.7969C1262.44 34.1719 1261.39 34.3594 1260.23 34.3594C1259.1 34.3594 1258.06 34.1719 1257.12 33.7969C1256.19 33.4219 1255.38 32.9062 1254.7 32.25C1254.04 31.5833 1253.52 30.7865 1253.16 29.8594C1252.8 28.9323 1252.62 27.901 1252.62 26.7656C1252.62 25.6615 1252.8 24.6354 1253.16 23.6875C1253.52 22.7292 1254.04 21.9167 1254.7 21.25C1255.38 20.5729 1256.19 20.0469 1257.12 19.6719C1258.06 19.2865 1259.1 19.0938 1260.23 19.0938C1261.39 19.0938 1262.44 19.2865 1263.38 19.6719C1264.31 20.0469 1265.11 20.5729 1265.78 21.25C1266.46 21.9167 1266.97 22.7292 1267.33 23.6875C1267.69 24.6354 1267.88 25.6615 1267.88 26.7656ZM1265.73 26.7656C1265.73 25.9323 1265.61 25.1667 1265.36 24.4688C1265.12 23.7604 1264.76 23.1406 1264.28 22.6094C1263.8 22.0781 1263.22 21.6615 1262.53 21.3594C1261.85 21.0573 1261.09 20.9062 1260.23 20.9062C1259.38 20.9062 1258.61 21.0573 1257.92 21.3594C1257.24 21.6615 1256.67 22.0781 1256.2 22.6094C1255.73 23.1406 1255.38 23.7604 1255.12 24.4688C1254.89 25.1667 1254.77 25.9323 1254.77 26.7656C1254.77 27.599 1254.89 28.3698 1255.12 29.0781C1255.38 29.776 1255.73 30.3802 1256.2 30.8906C1256.67 31.401 1257.24 31.8021 1257.92 32.0938C1258.61 32.3854 1259.38 32.5312 1260.23 32.5312C1261.09 32.5312 1261.85 32.3854 1262.53 32.0938C1263.22 31.8021 1263.8 31.401 1264.28 30.8906C1264.76 30.3802 1265.12 29.776 1265.36 29.0781C1265.61 28.3698 1265.73 27.599 1265.73 26.7656ZM1272.75 27.0625C1272.75 28.7188 1273.2 30.0469 1274.09 31.0469C1274.99 32.0365 1276.22 32.5312 1277.8 32.5312C1278.53 32.5312 1279.2 32.4062 1279.81 32.1562C1280.44 31.8958 1280.97 31.526 1281.42 31.0469C1281.87 30.5573 1282.21 29.9792 1282.45 29.3125C1282.7 28.6354 1282.83 27.8854 1282.83 27.0625C1282.83 25.3958 1282.39 24.0677 1281.52 23.0781C1280.64 22.0781 1279.4 21.5781 1277.8 21.5781C1276.07 21.5781 1274.79 22.0781 1273.97 23.0781C1273.16 24.0677 1272.75 25.3958 1272.75 27.0625ZM1270.41 23.8281C1270.41 22.2656 1270.57 20.8385 1270.89 19.5469C1271.22 18.2552 1271.69 17.1458 1272.28 16.2188C1272.89 15.2917 1273.6 14.5677 1274.42 14.0469C1275.24 13.526 1276.16 13.2656 1277.16 13.2656C1277.62 13.2656 1278.02 13.3125 1278.34 13.4062C1278.67 13.5 1278.95 13.6146 1279.2 13.75C1279.46 13.875 1279.71 13.9844 1279.94 14.0781C1280.18 14.1719 1280.46 14.2188 1280.78 14.2188C1281.21 14.2188 1281.57 14.1458 1281.86 14C1282.16 13.8542 1282.53 13.6094 1282.95 13.2656L1284.06 14.5469C1283.61 14.974 1283.09 15.3333 1282.48 15.625C1281.88 15.9062 1281.31 16.0469 1280.78 16.0469C1280.38 16.0469 1280.02 16 1279.72 15.9062C1279.42 15.8125 1279.14 15.7031 1278.88 15.5781C1278.62 15.4427 1278.36 15.3281 1278.09 15.2344C1277.83 15.1406 1277.52 15.0938 1277.16 15.0938C1276.52 15.0938 1275.92 15.2708 1275.36 15.625C1274.81 15.9688 1274.32 16.474 1273.91 17.1406C1273.49 17.7969 1273.16 18.5938 1272.92 19.5312C1272.69 20.4688 1272.58 21.526 1272.58 22.7031C1272.84 22.2344 1273.16 21.8177 1273.53 21.4531C1273.91 21.0885 1274.32 20.7812 1274.78 20.5312C1275.24 20.2708 1275.73 20.0781 1276.25 19.9531C1276.77 19.8281 1277.29 19.7656 1277.8 19.7656C1278.82 19.7656 1279.77 19.9219 1280.64 20.2344C1281.52 20.5365 1282.27 20.9948 1282.91 21.6094C1283.55 22.2135 1284.06 22.9688 1284.42 23.875C1284.79 24.7812 1284.97 25.8438 1284.97 27.0625C1284.97 28.0833 1284.79 29.0417 1284.42 29.9375C1284.06 30.8333 1283.55 31.6094 1282.91 32.2656C1282.27 32.9115 1281.52 33.4219 1280.64 33.7969C1279.77 34.1719 1278.82 34.3594 1277.8 34.3594C1275.35 34.3594 1273.51 33.5052 1272.27 31.7969C1271.03 30.0885 1270.41 27.4323 1270.41 23.8281ZM1302.44 26.7344C1302.44 27.8698 1302.26 28.901 1301.91 29.8281C1301.55 30.7552 1301.05 31.5573 1300.41 32.2344C1299.77 32.901 1299 33.4219 1298.09 33.7969C1297.19 34.1719 1296.17 34.3594 1295.05 34.3594C1294.28 34.3594 1293.53 34.2188 1292.8 33.9375C1292.08 33.6562 1291.41 33.2396 1290.78 32.6875V39.8281H1288.64V19.4375H1290.78V20.7812C1292.1 19.6562 1293.53 19.0938 1295.05 19.0938C1296.17 19.0938 1297.19 19.2812 1298.09 19.6562C1299 20.0208 1299.77 20.5469 1300.41 21.2344C1301.05 21.9115 1301.55 22.724 1301.91 23.6719C1302.26 24.6094 1302.44 25.6302 1302.44 26.7344ZM1300.3 26.7344C1300.3 25.9219 1300.18 25.1615 1299.95 24.4531C1299.73 23.7344 1299.4 23.1146 1298.95 22.5938C1298.51 22.0729 1297.95 21.6615 1297.3 21.3594C1296.65 21.0573 1295.9 20.9062 1295.05 20.9062C1294.23 20.9062 1293.47 21.0573 1292.77 21.3594C1292.07 21.6615 1291.41 22.151 1290.78 22.8281V30.6406C1291.41 31.3177 1292.07 31.8021 1292.77 32.0938C1293.47 32.3854 1294.23 32.5312 1295.05 32.5312C1295.9 32.5312 1296.65 32.3802 1297.3 32.0781C1297.95 31.776 1298.51 31.3646 1298.95 30.8438C1299.4 30.3229 1299.73 29.7135 1299.95 29.0156C1300.18 28.3073 1300.3 27.5469 1300.3 26.7344ZM1305.31 30.0625C1305.31 29.1458 1305.54 28.3802 1306 27.7656C1306.46 27.1406 1307.06 26.651 1307.8 26.2969C1308.55 25.9323 1309.4 25.6719 1310.36 25.5156C1311.33 25.349 1312.31 25.2656 1313.31 25.2656C1313.7 25.2656 1314.04 25.2708 1314.34 25.2812C1314.66 25.2917 1314.95 25.3073 1315.22 25.3281C1315.5 25.349 1315.78 25.375 1316.06 25.4062C1316.34 25.4375 1316.65 25.474 1316.98 25.5156V24.4688C1316.98 23.7604 1316.83 23.1771 1316.52 22.7188C1316.21 22.2604 1315.84 21.901 1315.39 21.6406C1314.94 21.3698 1314.47 21.1823 1313.98 21.0781C1313.49 20.9635 1313.08 20.9062 1312.73 20.9062C1311.65 20.9062 1310.65 21.0521 1309.73 21.3438C1308.82 21.6354 1307.96 22.026 1307.17 22.5156L1306.2 20.9062C1307.08 20.375 1308.06 19.9427 1309.14 19.6094C1310.23 19.2656 1311.43 19.0938 1312.73 19.0938C1313.53 19.0938 1314.3 19.1979 1315.06 19.4062C1315.83 19.6042 1316.52 19.9167 1317.12 20.3438C1317.74 20.7604 1318.23 21.3125 1318.59 22C1318.96 22.6875 1319.14 23.5104 1319.14 24.4688V34H1316.98V31.5625C1316.61 32.0312 1316.18 32.4427 1315.7 32.7969C1315.23 33.151 1314.74 33.4427 1314.22 33.6719C1313.7 33.8906 1313.18 34.0573 1312.66 34.1719C1312.14 34.2969 1311.64 34.3594 1311.17 34.3594C1309.24 34.3594 1307.79 33.9896 1306.8 33.25C1305.81 32.5104 1305.31 31.4479 1305.31 30.0625ZM1311.17 32.5312C1312.07 32.5312 1312.87 32.401 1313.58 32.1406C1314.3 31.8698 1314.91 31.5365 1315.41 31.1406C1315.91 30.7448 1316.29 30.3229 1316.56 29.875C1316.84 29.4271 1316.98 29.0208 1316.98 28.6562V27.2812C1316.29 27.1771 1315.61 27.1198 1314.97 27.1094C1314.33 27.099 1313.78 27.0938 1313.31 27.0938C1312.54 27.0938 1311.8 27.1458 1311.08 27.25C1310.37 27.3542 1309.75 27.526 1309.22 27.7656C1308.69 27.9948 1308.26 28.2969 1307.94 28.6719C1307.61 29.0469 1307.45 29.5104 1307.45 30.0625C1307.45 30.6771 1307.75 31.2448 1308.34 31.7656C1308.95 32.276 1309.89 32.5312 1311.17 32.5312ZM1327.03 25.8125L1322.56 19.4375H1324.95L1329.02 25.5781V19.4375H1331.17V25.5781L1335.23 19.4375H1337.62L1333.16 25.8125L1337.62 34H1335.33L1331.94 27.4688L1331.17 28.5938V34H1329.02V28.5938L1328.25 27.4688L1324.86 34H1322.56L1327.03 25.8125ZM1342.42 27.4688C1342.58 29.0104 1343.14 30.2396 1344.11 31.1562C1345.08 32.0729 1346.34 32.5312 1347.89 32.5312C1348.98 32.5312 1349.96 32.3073 1350.81 31.8594C1351.67 31.4115 1352.31 30.8542 1352.73 30.1875L1354.23 31.2188C1353.51 32.2396 1352.64 33.0208 1351.62 33.5625C1350.61 34.0938 1349.37 34.3594 1347.89 34.3594C1346.77 34.3594 1345.73 34.1719 1344.8 33.7969C1343.86 33.4219 1343.05 32.901 1342.36 32.2344C1341.68 31.5573 1341.16 30.7552 1340.78 29.8281C1340.41 28.901 1340.22 27.8698 1340.22 26.7344C1340.22 25.6302 1340.39 24.6146 1340.72 23.6875C1341.06 22.75 1341.55 21.9427 1342.19 21.2656C1342.83 20.5781 1343.61 20.0469 1344.53 19.6719C1345.45 19.2865 1346.47 19.0938 1347.61 19.0938C1348.85 19.0938 1349.93 19.3021 1350.86 19.7188C1351.79 20.1354 1352.56 20.7135 1353.17 21.4531C1353.8 22.1823 1354.26 23.0573 1354.55 24.0781C1354.85 25.099 1355 26.2292 1355 27.4688H1342.42ZM1352.73 25.6406C1352.49 24.0469 1351.92 22.8594 1351 22.0781C1350.08 21.2969 1348.95 20.9062 1347.61 20.9062C1346.92 20.9062 1346.29 21.0208 1345.7 21.25C1345.12 21.4688 1344.6 21.7865 1344.16 22.2031C1343.71 22.6198 1343.33 23.125 1343.03 23.7188C1342.73 24.3021 1342.54 24.9427 1342.45 25.6406H1352.73ZM1371.55 34H1369.39V27.4688H1360.66V34H1358.52V19.4375H1360.66V25.6406H1369.39V19.4375H1371.55V34ZM1375.98 19.4375H1378.12V31.1875L1386 19.4375H1389.02V34H1386.86V21.7188L1378.64 34H1375.98V19.4375ZM1398.09 28.1719C1396.36 28.0885 1395.04 27.7031 1394.11 27.0156C1393.18 26.3177 1392.72 25.2552 1392.72 23.8281C1392.72 22.3073 1393.23 21.1979 1394.27 20.5C1395.31 19.7917 1396.8 19.4375 1398.73 19.4375H1406.48V34H1404.33V28.1719H1400.84L1395.53 34H1392.5L1398.09 28.1719ZM1394.86 23.8281C1394.86 24.6406 1395.2 25.2656 1395.89 25.7031C1396.59 26.1406 1397.55 26.3594 1398.77 26.3594H1404.33V21.2656H1398.77C1397.55 21.2656 1396.59 21.4896 1395.89 21.9375C1395.2 22.3854 1394.86 23.0156 1394.86 23.8281Z" fill="black"/>
<ellipse cx="1184.82" cy="30.8213" rx="6.41112" ry="7.93978" transform="rotate(-20.202 1184.82 30.8213)" fill="#F94500"/>
<ellipse cx="1179.23" cy="17.5525" rx="6.41112" ry="7.93978" transform="rotate(-18.3189 1179.23 17.5525)" fill="#F94500"/>
<ellipse cx="1189.08" cy="21.8399" rx="6.41112" ry="7.93978" transform="rotate(64.6059 1189.08 21.8399)" fill="#F94500"/>
<ellipse cx="1175.92" cy="27.2591" rx="6.41112" ry="7.93978" transform="rotate(-115.42 1175.92 27.2591)" fill="#F94500"/>
<circle cx="1182.64" cy="24.6385" r="3.48247" fill="#FFDB15"/>
<path d="M1435.56 35.259C1445.36 21.2576 1451.04 11.1338 1451.83 11.9831C1453.77 13.8142 1454.91 40.0154 1452.92 39.7092C1449.53 39.2435 1436.94 24.965 1435.64 19.1771C1434.64 14.7434 1464.15 24.1724 1461.62 26.0262C1459.69 28.1336 1447.95 31.1684 1437.07 34.8338" stroke="#826DEE" stroke-width="3" stroke-linecap="round"/>
<path d="M2023.64 39.921C2017.46 23.9845 2012.21 13.6338 2013.36 13.449C2015.95 12.858 2038.36 26.4898 2037 27.9739C2034.72 30.5337 2015.85 33.0506 2010.32 30.9088C2006.08 29.2681 2030.34 9.99518 2030.47 13.1292C2031.14 15.9122 2027.14 27.3486 2024.12 38.4347" stroke="#F94500" stroke-width="3" stroke-linecap="round"/>
<path d="M1623.03 33.2837L1627.52 15.5375" stroke="#FFDB15" stroke-width="4" stroke-linecap="round"/>
<path d="M1630.19 32.4268L1620.3 16.0144" stroke="#F94500" stroke-width="4" stroke-linecap="round"/>
<path d="M1616.75 29.2274L1633.55 19.9067" stroke="#F94500" stroke-width="4" stroke-linecap="round"/>
<path d="M1634.77 26.7683L1615.36 21.4083" stroke="#FFDB15" stroke-width="4" stroke-linecap="round"/>
<path d="M1773.5 22.6485C1771.65 25.4958 1766.26 28.9893 1766.98 28.7549C1767.7 28.5205 1773 29.1058 1776.12 30.7033C1778.59 32.4859 1782.27 36.1468 1782.51 36.8681C1782.74 37.5895 1782.94 30.352 1783.81 28.2036C1785.06 24.8682 1789.46 21.4509 1790.54 21.0994C1791.62 20.7479 1784.84 21.5514 1781.2 20.1488C1778.02 18.7236 1774.54 12.343 1774.73 12.9441C1774.93 13.5452 1775.06 18.8278 1773.5 22.6485Z" stroke="#826DEE" stroke-width="3" stroke-linecap="round"/>
</svg>
