<svg width="2048" height="50" viewBox="0 0 2048 50" fill="none" xmlns="http://www.w3.org/2000/svg">
<rect width="2048" height="50" fill="#F5F5F5"/>
<rect width="1024" height="50" fill="#FF99DC"/>
<path d="M36.5312 36H33.4844L27.5312 29.4688L24.9062 31.875V36H22.7656V21.4375H24.9062V29.2812L33.2031 21.4375H36.2656L28.9688 28.125L36.5312 36ZM53.2656 36H51.1094V29.4688H42.375V36H40.2344V21.4375H42.375V27.6406H51.1094V21.4375H53.2656V36ZM71.875 28.7656C71.875 29.901 71.6927 30.9323 71.3281 31.8594C70.974 32.7865 70.4583 33.5833 69.7812 34.25C69.1146 34.9062 68.3125 35.4219 67.375 35.7969C66.4375 36.1719 65.3906 36.3594 64.2344 36.3594C63.099 36.3594 62.0625 36.1719 61.125 35.7969C60.1875 35.4219 59.3802 34.9062 58.7031 34.25C58.0365 33.5833 57.5208 32.7865 57.1562 31.8594C56.8021 30.9323 56.625 29.901 56.625 28.7656C56.625 27.6615 56.8021 26.6354 57.1562 25.6875C57.5208 24.7292 58.0365 23.9167 58.7031 23.25C59.3802 22.5729 60.1875 22.0469 61.125 21.6719C62.0625 21.2865 63.099 21.0938 64.2344 21.0938C65.3906 21.0938 66.4375 21.2865 67.375 21.6719C68.3125 22.0469 69.1146 22.5729 69.7812 23.25C70.4583 23.9167 70.974 24.7292 71.3281 25.6875C71.6927 26.6354 71.875 27.6615 71.875 28.7656ZM69.7344 28.7656C69.7344 27.9323 69.6094 27.1667 69.3594 26.4688C69.1198 25.7604 68.7604 25.1406 68.2812 24.6094C67.8021 24.0781 67.2188 23.6615 66.5312 23.3594C65.8542 23.0573 65.0885 22.9062 64.2344 22.9062C63.3802 22.9062 62.6094 23.0573 61.9219 23.3594C61.2448 23.6615 60.6719 24.0781 60.2031 24.6094C59.7344 25.1406 59.375 25.7604 59.125 26.4688C58.8854 27.1667 58.7656 27.9323 58.7656 28.7656C58.7656 29.599 58.8854 30.3698 59.125 31.0781C59.375 31.776 59.7344 32.3802 60.2031 32.8906C60.6719 33.401 61.2448 33.8021 61.9219 34.0938C62.6094 34.3854 63.3802 34.5312 64.2344 34.5312C65.0885 34.5312 65.8542 34.3854 66.5312 34.0938C67.2188 33.8021 67.8021 33.401 68.2812 32.8906C68.7604 32.3802 69.1198 31.776 69.3594 31.0781C69.6094 30.3698 69.7344 29.599 69.7344 28.7656ZM88.2031 36H86.0469V23.2656H77.3125V36H75.1719V21.4375H88.2031V36ZM106.406 36H103.359L97.4062 29.4688L94.7812 31.875V36H92.6406V21.4375H94.7812V29.2812L103.078 21.4375H106.141L98.8438 28.125L106.406 36ZM110.109 21.4375H112.25V33.1875L120.125 21.4375H123.141V36H120.984V23.7188L112.766 36H110.109V21.4375Z" fill="black"/>
<path d="M812.797 34H810.641V21.2656H801.906V34H799.766V19.4375H812.797V34ZM831.031 26.7344C831.031 27.8698 830.854 28.901 830.5 29.8281C830.146 30.7552 829.646 31.5573 829 32.2344C828.365 32.901 827.594 33.4219 826.688 33.7969C825.781 34.1719 824.766 34.3594 823.641 34.3594C822.87 34.3594 822.12 34.2188 821.391 33.9375C820.672 33.6562 820 33.2396 819.375 32.6875V39.8281H817.234V19.4375H819.375V20.7812C820.698 19.6562 822.12 19.0938 823.641 19.0938C824.766 19.0938 825.781 19.2812 826.688 19.6562C827.594 20.0208 828.365 20.5469 829 21.2344C829.646 21.9115 830.146 22.724 830.5 23.6719C830.854 24.6094 831.031 25.6302 831.031 26.7344ZM828.891 26.7344C828.891 25.9219 828.776 25.1615 828.547 24.4531C828.328 23.7344 827.995 23.1146 827.547 22.5938C827.099 22.0729 826.547 21.6615 825.891 21.3594C825.245 21.0573 824.495 20.9062 823.641 20.9062C822.828 20.9062 822.068 21.0573 821.359 21.3594C820.661 21.6615 820 22.151 819.375 22.8281V30.6406C820 31.3177 820.661 31.8021 821.359 32.0938C822.068 32.3854 822.828 32.5312 823.641 32.5312C824.495 32.5312 825.245 32.3802 825.891 32.0781C826.547 31.776 827.099 31.3646 827.547 30.8438C827.995 30.3229 828.328 29.7135 828.547 29.0156C828.776 28.3073 828.891 27.5469 828.891 26.7344ZM848.875 26.7656C848.875 27.901 848.693 28.9323 848.328 29.8594C847.974 30.7865 847.458 31.5833 846.781 32.25C846.115 32.9062 845.312 33.4219 844.375 33.7969C843.438 34.1719 842.391 34.3594 841.234 34.3594C840.099 34.3594 839.062 34.1719 838.125 33.7969C837.188 33.4219 836.38 32.9062 835.703 32.25C835.036 31.5833 834.521 30.7865 834.156 29.8594C833.802 28.9323 833.625 27.901 833.625 26.7656C833.625 25.6615 833.802 24.6354 834.156 23.6875C834.521 22.7292 835.036 21.9167 835.703 21.25C836.38 20.5729 837.188 20.0469 838.125 19.6719C839.062 19.2865 840.099 19.0938 841.234 19.0938C842.391 19.0938 843.438 19.2865 844.375 19.6719C845.312 20.0469 846.115 20.5729 846.781 21.25C847.458 21.9167 847.974 22.7292 848.328 23.6875C848.693 24.6354 848.875 25.6615 848.875 26.7656ZM846.734 26.7656C846.734 25.9323 846.609 25.1667 846.359 24.4688C846.12 23.7604 845.76 23.1406 845.281 22.6094C844.802 22.0781 844.219 21.6615 843.531 21.3594C842.854 21.0573 842.089 20.9062 841.234 20.9062C840.38 20.9062 839.609 21.0573 838.922 21.3594C838.245 21.6615 837.672 22.0781 837.203 22.6094C836.734 23.1406 836.375 23.7604 836.125 24.4688C835.885 25.1667 835.766 25.9323 835.766 26.7656C835.766 27.599 835.885 28.3698 836.125 29.0781C836.375 29.776 836.734 30.3802 837.203 30.8906C837.672 31.401 838.245 31.8021 838.922 32.0938C839.609 32.3854 840.38 32.5312 841.234 32.5312C842.089 32.5312 842.854 32.3854 843.531 32.0938C844.219 31.8021 844.802 31.401 845.281 30.8906C845.76 30.3802 846.12 29.776 846.359 29.0781C846.609 28.3698 846.734 27.599 846.734 26.7656ZM865.938 34H862.891L856.938 27.4688L854.312 29.875V34H852.172V19.4375H854.312V27.2812L862.609 19.4375H865.672L858.375 26.125L865.938 34ZM883.438 26.7344C883.438 27.8698 883.26 28.901 882.906 29.8281C882.552 30.7552 882.052 31.5573 881.406 32.2344C880.771 32.901 880 33.4219 879.094 33.7969C878.188 34.1719 877.172 34.3594 876.047 34.3594C875.276 34.3594 874.526 34.2188 873.797 33.9375C873.078 33.6562 872.406 33.2396 871.781 32.6875V39.8281H869.641V19.4375H871.781V20.7812C873.104 19.6562 874.526 19.0938 876.047 19.0938C877.172 19.0938 878.188 19.2812 879.094 19.6562C880 20.0208 880.771 20.5469 881.406 21.2344C882.052 21.9115 882.552 22.724 882.906 23.6719C883.26 24.6094 883.438 25.6302 883.438 26.7344ZM881.297 26.7344C881.297 25.9219 881.182 25.1615 880.953 24.4531C880.734 23.7344 880.401 23.1146 879.953 22.5938C879.505 22.0729 878.953 21.6615 878.297 21.3594C877.651 21.0573 876.901 20.9062 876.047 20.9062C875.234 20.9062 874.474 21.0573 873.766 21.3594C873.068 21.6615 872.406 22.151 871.781 22.8281V30.6406C872.406 31.3177 873.068 31.8021 873.766 32.0938C874.474 32.3854 875.234 32.5312 876.047 32.5312C876.901 32.5312 877.651 32.3802 878.297 32.0781C878.953 31.776 879.505 31.3646 879.953 30.8438C880.401 30.3229 880.734 29.7135 880.953 29.0156C881.182 28.3073 881.297 27.5469 881.297 26.7344ZM901.359 19.4375L893.484 37.6875C893.078 38.7083 892.505 39.375 891.766 39.6875C891.026 40.0104 890.208 40.1719 889.312 40.1719C888.312 40.1719 887.312 39.9896 886.312 39.625L886.734 37.7812C887.224 37.9896 887.703 38.1354 888.172 38.2188C888.641 38.3125 889.021 38.3594 889.312 38.3594C890.021 38.3594 890.505 38.1875 890.766 37.8438C891.036 37.5 891.271 37.0938 891.469 36.625L892.359 34.4219L885.859 19.4375H888.391L893.641 32.1719L898.797 19.4375H901.359ZM918.375 26.3125H916.547V21.2656H912.172V32.1719H915.453V34H906.719V32.1719H910.016V21.2656H905.641V26.3125H903.812V19.4375H918.375V26.3125ZM935.812 34H932.766L926.812 27.4688L924.188 29.875V34H922.047V19.4375H924.188V27.2812L932.484 19.4375H935.547L928.25 26.125L935.812 34ZM938.719 30.0625C938.719 29.1458 938.948 28.3802 939.406 27.7656C939.865 27.1406 940.464 26.651 941.203 26.2969C941.953 25.9323 942.807 25.6719 943.766 25.5156C944.734 25.349 945.719 25.2656 946.719 25.2656C947.104 25.2656 947.448 25.2708 947.75 25.2812C948.062 25.2917 948.354 25.3073 948.625 25.3281C948.906 25.349 949.188 25.375 949.469 25.4062C949.75 25.4375 950.057 25.474 950.391 25.5156V24.4688C950.391 23.7604 950.234 23.1771 949.922 22.7188C949.62 22.2604 949.245 21.901 948.797 21.6406C948.349 21.3698 947.88 21.1823 947.391 21.0781C946.901 20.9635 946.484 20.9062 946.141 20.9062C945.057 20.9062 944.057 21.0521 943.141 21.3438C942.224 21.6354 941.37 22.026 940.578 22.5156L939.609 20.9062C940.484 20.375 941.464 19.9427 942.547 19.6094C943.641 19.2656 944.839 19.0938 946.141 19.0938C946.932 19.0938 947.708 19.1979 948.469 19.4062C949.24 19.6042 949.927 19.9167 950.531 20.3438C951.146 20.7604 951.635 21.3125 952 22C952.365 22.6875 952.547 23.5104 952.547 24.4688V34H950.391V31.5625C950.016 32.0312 949.589 32.4427 949.109 32.7969C948.641 33.151 948.146 33.4427 947.625 33.6719C947.104 33.8906 946.583 34.0573 946.062 34.1719C945.542 34.2969 945.047 34.3594 944.578 34.3594C942.651 34.3594 941.193 33.9896 940.203 33.25C939.214 32.5104 938.719 31.4479 938.719 30.0625ZM944.578 32.5312C945.474 32.5312 946.276 32.401 946.984 32.1406C947.703 31.8698 948.312 31.5365 948.812 31.1406C949.312 30.7448 949.698 30.3229 949.969 29.875C950.25 29.4271 950.391 29.0208 950.391 28.6562V27.2812C949.693 27.1771 949.021 27.1198 948.375 27.1094C947.74 27.099 947.188 27.0938 946.719 27.0938C945.948 27.0938 945.203 27.1458 944.484 27.25C943.776 27.3542 943.156 27.526 942.625 27.7656C942.094 27.9948 941.667 28.2969 941.344 28.6719C941.021 29.0469 940.859 29.5104 940.859 30.0625C940.859 30.6771 941.156 31.2448 941.75 31.7656C942.354 32.276 943.297 32.5312 944.578 32.5312Z" fill="black"/>
<path d="M657.797 36H655.641V24.4531L652.062 32H650.531L646.906 24.4531V36H644.766V21.4375H647.547L651.297 29.0312L655.016 21.4375H657.797V36ZM663.609 29.4688C663.766 31.0104 664.328 32.2396 665.297 33.1562C666.266 34.0729 667.526 34.5312 669.078 34.5312C670.172 34.5312 671.146 34.3073 672 33.8594C672.854 33.4115 673.495 32.8542 673.922 32.1875L675.422 33.2188C674.693 34.2396 673.823 35.0208 672.812 35.5625C671.802 36.0938 670.557 36.3594 669.078 36.3594C667.953 36.3594 666.922 36.1719 665.984 35.7969C665.047 35.4219 664.234 34.901 663.547 34.2344C662.87 33.5573 662.344 32.7552 661.969 31.8281C661.594 30.901 661.406 29.8698 661.406 28.7344C661.406 27.6302 661.573 26.6146 661.906 25.6875C662.25 24.75 662.74 23.9427 663.375 23.2656C664.021 22.5781 664.802 22.0469 665.719 21.6719C666.635 21.2865 667.661 21.0938 668.797 21.0938C670.036 21.0938 671.12 21.3021 672.047 21.7188C672.974 22.1354 673.745 22.7135 674.359 23.4531C674.984 24.1823 675.443 25.0573 675.734 26.0781C676.036 27.099 676.188 28.2292 676.188 29.4688H663.609ZM673.922 27.6406C673.682 26.0469 673.104 24.8594 672.188 24.0781C671.271 23.2969 670.141 22.9062 668.797 22.9062C668.109 22.9062 667.474 23.0208 666.891 23.25C666.307 23.4688 665.792 23.7865 665.344 24.2031C664.896 24.6198 664.521 25.125 664.219 25.7188C663.917 26.3021 663.724 26.9427 663.641 27.6406H673.922ZM692.734 36H690.578V29.4688H681.844V36H679.703V21.4375H681.844V27.6406H690.578V21.4375H692.734V36ZM697.172 21.4375H699.312V27.8125H702.266C702.453 23.3333 703.901 21.0938 706.609 21.0938C709.516 21.0938 710.969 23.6406 710.969 28.7344C710.969 33.8177 709.516 36.3594 706.609 36.3594C703.859 36.3594 702.411 34.1146 702.266 29.625H699.312V36H697.172V21.4375ZM706.609 34.625C708.089 34.625 708.828 32.6615 708.828 28.7344C708.828 24.8281 708.089 22.875 706.609 22.875C705.141 22.875 704.406 24.8281 704.406 28.7344C704.406 32.6615 705.141 34.625 706.609 34.625Z" fill="black"/>
<path d="M472.203 24.3906C471.609 23.401 470.875 22.9062 470 22.9062C469.229 22.9062 468.651 23.3542 468.266 24.25C467.891 25.1458 467.703 26.6406 467.703 28.7344C467.703 30.8281 467.891 32.3177 468.266 33.2031C468.651 34.0885 469.229 34.5312 470 34.5312C470.875 34.5312 471.609 34.0417 472.203 33.0625V24.3906ZM472.203 35.0156C471.651 35.9115 470.917 36.3594 470 36.3594C468.51 36.3594 467.396 35.7031 466.656 34.3906C465.917 33.0781 465.547 31.1927 465.547 28.7344C465.547 26.2865 465.917 24.401 466.656 23.0781C467.396 21.7552 468.51 21.0938 470 21.0938C470.917 21.0938 471.651 21.5417 472.203 22.4375V15.6094H474.359V22.4375C474.911 21.5417 475.646 21.0938 476.562 21.0938C478.052 21.0938 479.167 21.7552 479.906 23.0781C480.646 24.401 481.016 26.2865 481.016 28.7344C481.016 31.1927 480.646 33.0781 479.906 34.3906C479.167 35.7031 478.052 36.3594 476.562 36.3594C475.646 36.3594 474.911 35.9115 474.359 35.0156V41.8281H472.203V35.0156ZM474.359 33.0625C474.953 34.0417 475.688 34.5312 476.562 34.5312C477.333 34.5312 477.906 34.0885 478.281 33.2031C478.667 32.3177 478.859 30.8281 478.859 28.7344C478.859 26.6406 478.667 25.1458 478.281 24.25C477.906 23.3542 477.333 22.9062 476.562 22.9062C475.688 22.9062 474.953 23.401 474.359 24.3906V33.0625ZM498.406 28.7656C498.406 29.901 498.224 30.9323 497.859 31.8594C497.505 32.7865 496.99 33.5833 496.312 34.25C495.646 34.9062 494.844 35.4219 493.906 35.7969C492.969 36.1719 491.922 36.3594 490.766 36.3594C489.63 36.3594 488.594 36.1719 487.656 35.7969C486.719 35.4219 485.911 34.9062 485.234 34.25C484.568 33.5833 484.052 32.7865 483.688 31.8594C483.333 30.9323 483.156 29.901 483.156 28.7656C483.156 27.6615 483.333 26.6354 483.688 25.6875C484.052 24.7292 484.568 23.9167 485.234 23.25C485.911 22.5729 486.719 22.0469 487.656 21.6719C488.594 21.2865 489.63 21.0938 490.766 21.0938C491.922 21.0938 492.969 21.2865 493.906 21.6719C494.844 22.0469 495.646 22.5729 496.312 23.25C496.99 23.9167 497.505 24.7292 497.859 25.6875C498.224 26.6354 498.406 27.6615 498.406 28.7656ZM496.266 28.7656C496.266 27.9323 496.141 27.1667 495.891 26.4688C495.651 25.7604 495.292 25.1406 494.812 24.6094C494.333 24.0781 493.75 23.6615 493.062 23.3594C492.385 23.0573 491.62 22.9062 490.766 22.9062C489.911 22.9062 489.141 23.0573 488.453 23.3594C487.776 23.6615 487.203 24.0781 486.734 24.6094C486.266 25.1406 485.906 25.7604 485.656 26.4688C485.417 27.1667 485.297 27.9323 485.297 28.7656C485.297 29.599 485.417 30.3698 485.656 31.0781C485.906 31.776 486.266 32.3802 486.734 32.8906C487.203 33.401 487.776 33.8021 488.453 34.0938C489.141 34.3854 489.911 34.5312 490.766 34.5312C491.62 34.5312 492.385 34.3854 493.062 34.0938C493.75 33.8021 494.333 33.401 494.812 32.8906C495.292 32.3802 495.651 31.776 495.891 31.0781C496.141 30.3698 496.266 29.599 496.266 28.7656ZM515.5 28.7344C515.5 29.8698 515.323 30.901 514.969 31.8281C514.615 32.7552 514.115 33.5573 513.469 34.2344C512.833 34.901 512.062 35.4219 511.156 35.7969C510.25 36.1719 509.234 36.3594 508.109 36.3594C507.339 36.3594 506.589 36.2188 505.859 35.9375C505.141 35.6562 504.469 35.2396 503.844 34.6875V41.8281H501.703V21.4375H503.844V22.7812C505.167 21.6562 506.589 21.0938 508.109 21.0938C509.234 21.0938 510.25 21.2812 511.156 21.6562C512.062 22.0208 512.833 22.5469 513.469 23.2344C514.115 23.9115 514.615 24.724 514.969 25.6719C515.323 26.6094 515.5 27.6302 515.5 28.7344ZM513.359 28.7344C513.359 27.9219 513.245 27.1615 513.016 26.4531C512.797 25.7344 512.464 25.1146 512.016 24.5938C511.568 24.0729 511.016 23.6615 510.359 23.3594C509.714 23.0573 508.964 22.9062 508.109 22.9062C507.297 22.9062 506.536 23.0573 505.828 23.3594C505.13 23.6615 504.469 24.151 503.844 24.8281V32.6406C504.469 33.3177 505.13 33.8021 505.828 34.0938C506.536 34.3854 507.297 34.5312 508.109 34.5312C508.964 34.5312 509.714 34.3802 510.359 34.0781C511.016 33.776 511.568 33.3646 512.016 32.8438C512.464 32.3229 512.797 31.7135 513.016 31.0156C513.245 30.3073 513.359 29.5469 513.359 28.7344ZM532.203 36H530.047V24.4531L526.469 32H524.938L521.312 24.4531V36H519.172V21.4375H521.953L525.703 29.0312L529.422 21.4375H532.203V36ZM548.297 21.4375H550.438V36H548.297V21.4375ZM538.016 27.2656H540.516C542.12 27.2656 543.339 27.6146 544.172 28.3125C545.016 29 545.438 30.099 545.438 31.6094C545.438 33.1302 545.016 34.2448 544.172 34.9531C543.339 35.651 542.13 36 540.547 36H535.875V21.4375H538.016V27.2656ZM543.297 31.6094C543.297 30.8073 543.057 30.1875 542.578 29.75C542.099 29.3125 541.422 29.0938 540.547 29.0938H538.016V34.1719H540.547C541.422 34.1719 542.099 33.9479 542.578 33.5C543.057 33.0521 543.297 32.4219 543.297 31.6094Z" fill="black"/>
<path d="M194.766 21.4375H196.906V33.1875L204.781 21.4375H207.797V36H205.641V23.7188L197.422 36H194.766V21.4375ZM225.266 25.4375C225.266 26.1458 225.016 26.8125 224.516 27.4375C224.026 28.0521 223.271 28.4427 222.25 28.6094C223.208 28.7969 223.979 29.2031 224.562 29.8281C225.156 30.4427 225.453 31.125 225.453 31.875C225.453 32.5729 225.266 33.2031 224.891 33.7656C224.516 34.3177 224 34.7865 223.344 35.1719C222.698 35.5573 221.932 35.849 221.047 36.0469C220.161 36.2552 219.198 36.3594 218.156 36.3594C216.49 36.3594 215.115 36.1042 214.031 35.5938C212.958 35.0729 212.094 34.2917 211.438 33.25L212.938 32.2188C213.427 32.9688 214.099 33.5417 214.953 33.9375C215.807 34.3333 216.875 34.5312 218.156 34.5312C219.688 34.5312 220.927 34.2969 221.875 33.8281C222.833 33.3594 223.312 32.7083 223.312 31.875C223.312 31.5938 223.219 31.3125 223.031 31.0312C222.854 30.7396 222.589 30.4844 222.234 30.2656C221.88 30.0365 221.443 29.8542 220.922 29.7188C220.401 29.5729 219.786 29.5 219.078 29.5H216.641V27.6875H219.078C220.443 27.6875 221.453 27.4479 222.109 26.9688C222.776 26.4792 223.109 25.9688 223.109 25.4375C223.109 24.6667 222.682 24.0521 221.828 23.5938C220.984 23.1354 219.823 22.9062 218.344 22.9062C217.115 22.9062 216.099 23.125 215.297 23.5625C214.495 24 213.88 24.5833 213.453 25.3125L211.859 24.2188C212.495 23.1771 213.333 22.3958 214.375 21.875C215.427 21.3542 216.75 21.0938 218.344 21.0938C219.354 21.0938 220.276 21.1979 221.109 21.4062C221.953 21.6042 222.682 21.8906 223.297 22.2656C223.922 22.6302 224.406 23.0885 224.75 23.6406C225.094 24.1823 225.266 24.7812 225.266 25.4375ZM243.875 28.7656C243.875 29.901 243.693 30.9323 243.328 31.8594C242.974 32.7865 242.458 33.5833 241.781 34.25C241.115 34.9062 240.312 35.4219 239.375 35.7969C238.438 36.1719 237.391 36.3594 236.234 36.3594C235.099 36.3594 234.062 36.1719 233.125 35.7969C232.188 35.4219 231.38 34.9062 230.703 34.25C230.036 33.5833 229.521 32.7865 229.156 31.8594C228.802 30.9323 228.625 29.901 228.625 28.7656C228.625 27.6615 228.802 26.6354 229.156 25.6875C229.521 24.7292 230.036 23.9167 230.703 23.25C231.38 22.5729 232.188 22.0469 233.125 21.6719C234.062 21.2865 235.099 21.0938 236.234 21.0938C237.391 21.0938 238.438 21.2865 239.375 21.6719C240.312 22.0469 241.115 22.5729 241.781 23.25C242.458 23.9167 242.974 24.7292 243.328 25.6875C243.693 26.6354 243.875 27.6615 243.875 28.7656ZM241.734 28.7656C241.734 27.9323 241.609 27.1667 241.359 26.4688C241.12 25.7604 240.76 25.1406 240.281 24.6094C239.802 24.0781 239.219 23.6615 238.531 23.3594C237.854 23.0573 237.089 22.9062 236.234 22.9062C235.38 22.9062 234.609 23.0573 233.922 23.3594C233.245 23.6615 232.672 24.0781 232.203 24.6094C231.734 25.1406 231.375 25.7604 231.125 26.4688C230.885 27.1667 230.766 27.9323 230.766 28.7656C230.766 29.599 230.885 30.3698 231.125 31.0781C231.375 31.776 231.734 32.3802 232.203 32.8906C232.672 33.401 233.245 33.8021 233.922 34.0938C234.609 34.3854 235.38 34.5312 236.234 34.5312C237.089 34.5312 237.854 34.3854 238.531 34.0938C239.219 33.8021 239.802 33.401 240.281 32.8906C240.76 32.3802 241.12 31.776 241.359 31.0781C241.609 30.3698 241.734 29.599 241.734 28.7656ZM248.75 29.0625C248.75 30.7188 249.198 32.0469 250.094 33.0469C250.99 34.0365 252.224 34.5312 253.797 34.5312C254.526 34.5312 255.198 34.4062 255.812 34.1562C256.438 33.8958 256.974 33.526 257.422 33.0469C257.87 32.5573 258.214 31.9792 258.453 31.3125C258.703 30.6354 258.828 29.8854 258.828 29.0625C258.828 27.3958 258.391 26.0677 257.516 25.0781C256.641 24.0781 255.401 23.5781 253.797 23.5781C252.068 23.5781 250.792 24.0781 249.969 25.0781C249.156 26.0677 248.75 27.3958 248.75 29.0625ZM246.406 25.8281C246.406 24.2656 246.568 22.8385 246.891 21.5469C247.224 20.2552 247.688 19.1458 248.281 18.2188C248.885 17.2917 249.599 16.5677 250.422 16.0469C251.245 15.526 252.156 15.2656 253.156 15.2656C253.625 15.2656 254.021 15.3125 254.344 15.4062C254.667 15.5 254.953 15.6146 255.203 15.75C255.464 15.875 255.708 15.9844 255.938 16.0781C256.177 16.1719 256.458 16.2188 256.781 16.2188C257.208 16.2188 257.568 16.1458 257.859 16C258.161 15.8542 258.526 15.6094 258.953 15.2656L260.062 16.5469C259.615 16.974 259.089 17.3333 258.484 17.625C257.88 17.9062 257.312 18.0469 256.781 18.0469C256.375 18.0469 256.021 18 255.719 17.9062C255.417 17.8125 255.135 17.7031 254.875 17.5781C254.625 17.4427 254.365 17.3281 254.094 17.2344C253.833 17.1406 253.521 17.0938 253.156 17.0938C252.521 17.0938 251.922 17.2708 251.359 17.625C250.807 17.9688 250.323 18.474 249.906 19.1406C249.49 19.7969 249.161 20.5938 248.922 21.5312C248.693 22.4688 248.578 23.526 248.578 24.7031C248.839 24.2344 249.156 23.8177 249.531 23.4531C249.906 23.0885 250.323 22.7812 250.781 22.5312C251.24 22.2708 251.729 22.0781 252.25 21.9531C252.771 21.8281 253.286 21.7656 253.797 21.7656C254.818 21.7656 255.766 21.9219 256.641 22.2344C257.516 22.5365 258.271 22.9948 258.906 23.6094C259.552 24.2135 260.057 24.9688 260.422 25.875C260.786 26.7812 260.969 27.8438 260.969 29.0625C260.969 30.0833 260.786 31.0417 260.422 31.9375C260.057 32.8333 259.552 33.6094 258.906 34.2656C258.271 34.9115 257.516 35.4219 256.641 35.7969C255.766 36.1719 254.818 36.3594 253.797 36.3594C251.349 36.3594 249.505 35.5052 248.266 33.7969C247.026 32.0885 246.406 29.4323 246.406 25.8281ZM278.438 28.7344C278.438 29.8698 278.26 30.901 277.906 31.8281C277.552 32.7552 277.052 33.5573 276.406 34.2344C275.771 34.901 275 35.4219 274.094 35.7969C273.188 36.1719 272.172 36.3594 271.047 36.3594C270.276 36.3594 269.526 36.2188 268.797 35.9375C268.078 35.6562 267.406 35.2396 266.781 34.6875V41.8281H264.641V21.4375H266.781V22.7812C268.104 21.6562 269.526 21.0938 271.047 21.0938C272.172 21.0938 273.188 21.2812 274.094 21.6562C275 22.0208 275.771 22.5469 276.406 23.2344C277.052 23.9115 277.552 24.724 277.906 25.6719C278.26 26.6094 278.438 27.6302 278.438 28.7344ZM276.297 28.7344C276.297 27.9219 276.182 27.1615 275.953 26.4531C275.734 25.7344 275.401 25.1146 274.953 24.5938C274.505 24.0729 273.953 23.6615 273.297 23.3594C272.651 23.0573 271.901 22.9062 271.047 22.9062C270.234 22.9062 269.474 23.0573 268.766 23.3594C268.068 23.6615 267.406 24.151 266.781 24.8281V32.6406C267.406 33.3177 268.068 33.8021 268.766 34.0938C269.474 34.3854 270.234 34.5312 271.047 34.5312C271.901 34.5312 272.651 34.3802 273.297 34.0781C273.953 33.776 274.505 33.3646 274.953 32.8438C275.401 32.3229 275.734 31.7135 275.953 31.0156C276.182 30.3073 276.297 29.5469 276.297 28.7344ZM281.312 32.0625C281.312 31.1458 281.542 30.3802 282 29.7656C282.458 29.1406 283.057 28.651 283.797 28.2969C284.547 27.9323 285.401 27.6719 286.359 27.5156C287.328 27.349 288.312 27.2656 289.312 27.2656C289.698 27.2656 290.042 27.2708 290.344 27.2812C290.656 27.2917 290.948 27.3073 291.219 27.3281C291.5 27.349 291.781 27.375 292.062 27.4062C292.344 27.4375 292.651 27.474 292.984 27.5156V26.4688C292.984 25.7604 292.828 25.1771 292.516 24.7188C292.214 24.2604 291.839 23.901 291.391 23.6406C290.943 23.3698 290.474 23.1823 289.984 23.0781C289.495 22.9635 289.078 22.9062 288.734 22.9062C287.651 22.9062 286.651 23.0521 285.734 23.3438C284.818 23.6354 283.964 24.026 283.172 24.5156L282.203 22.9062C283.078 22.375 284.057 21.9427 285.141 21.6094C286.234 21.2656 287.432 21.0938 288.734 21.0938C289.526 21.0938 290.302 21.1979 291.062 21.4062C291.833 21.6042 292.521 21.9167 293.125 22.3438C293.74 22.7604 294.229 23.3125 294.594 24C294.958 24.6875 295.141 25.5104 295.141 26.4688V36H292.984V33.5625C292.609 34.0312 292.182 34.4427 291.703 34.7969C291.234 35.151 290.74 35.4427 290.219 35.6719C289.698 35.8906 289.177 36.0573 288.656 36.1719C288.135 36.2969 287.641 36.3594 287.172 36.3594C285.245 36.3594 283.786 35.9896 282.797 35.25C281.807 34.5104 281.312 33.4479 281.312 32.0625ZM287.172 34.5312C288.068 34.5312 288.87 34.401 289.578 34.1406C290.297 33.8698 290.906 33.5365 291.406 33.1406C291.906 32.7448 292.292 32.3229 292.562 31.875C292.844 31.4271 292.984 31.0208 292.984 30.6562V29.2812C292.286 29.1771 291.615 29.1198 290.969 29.1094C290.333 29.099 289.781 29.0938 289.312 29.0938C288.542 29.0938 287.797 29.1458 287.078 29.25C286.37 29.3542 285.75 29.526 285.219 29.7656C284.688 29.9948 284.26 30.2969 283.938 30.6719C283.615 31.0469 283.453 31.5104 283.453 32.0625C283.453 32.6771 283.75 33.2448 284.344 33.7656C284.948 34.276 285.891 34.5312 287.172 34.5312ZM303.031 27.8125L298.562 21.4375H300.953L305.016 27.5781V21.4375H307.172V27.5781L311.234 21.4375H313.625L309.156 27.8125L313.625 36H311.328L307.938 29.4688L307.172 30.5938V36H305.016V30.5938L304.25 29.4688L300.859 36H298.562L303.031 27.8125ZM318.422 29.4688C318.578 31.0104 319.141 32.2396 320.109 33.1562C321.078 34.0729 322.339 34.5312 323.891 34.5312C324.984 34.5312 325.958 34.3073 326.812 33.8594C327.667 33.4115 328.307 32.8542 328.734 32.1875L330.234 33.2188C329.505 34.2396 328.635 35.0208 327.625 35.5625C326.615 36.0938 325.37 36.3594 323.891 36.3594C322.766 36.3594 321.734 36.1719 320.797 35.7969C319.859 35.4219 319.047 34.901 318.359 34.2344C317.682 33.5573 317.156 32.7552 316.781 31.8281C316.406 30.901 316.219 29.8698 316.219 28.7344C316.219 27.6302 316.385 26.6146 316.719 25.6875C317.062 24.75 317.552 23.9427 318.188 23.2656C318.833 22.5781 319.615 22.0469 320.531 21.6719C321.448 21.2865 322.474 21.0938 323.609 21.0938C324.849 21.0938 325.932 21.3021 326.859 21.7188C327.786 22.1354 328.557 22.7135 329.172 23.4531C329.797 24.1823 330.255 25.0573 330.547 26.0781C330.849 27.099 331 28.2292 331 29.4688H318.422ZM328.734 27.6406C328.495 26.0469 327.917 24.8594 327 24.0781C326.083 23.2969 324.953 22.9062 323.609 22.9062C322.922 22.9062 322.286 23.0208 321.703 23.25C321.12 23.4688 320.604 23.7865 320.156 24.2031C319.708 24.6198 319.333 25.125 319.031 25.7188C318.729 26.3021 318.536 26.9427 318.453 27.6406H328.734ZM347.547 36H345.391V29.4688H336.656V36H334.516V21.4375H336.656V27.6406H345.391V21.4375H347.547V36ZM351.984 21.4375H354.125V33.1875L362 21.4375H365.016V36H362.859V23.7188L354.641 36H351.984V21.4375ZM374.094 30.1719C372.365 30.0885 371.036 29.7031 370.109 29.0156C369.182 28.3177 368.719 27.2552 368.719 25.8281C368.719 24.3073 369.234 23.1979 370.266 22.5C371.307 21.7917 372.797 21.4375 374.734 21.4375H382.484V36H380.328V30.1719H376.844L371.531 36H368.5L374.094 30.1719ZM370.859 25.8281C370.859 26.6406 371.203 27.2656 371.891 27.7031C372.589 28.1406 373.547 28.3594 374.766 28.3594H380.328V23.2656H374.766C373.547 23.2656 372.589 23.4896 371.891 23.9375C371.203 24.3854 370.859 25.0156 370.859 25.8281Z" fill="black"/>
<ellipse cx="160.819" cy="32.8213" rx="6.41112" ry="7.93978" transform="rotate(-20.202 160.819 32.8213)" fill="#F94500"/>
<ellipse cx="155.225" cy="19.5525" rx="6.41112" ry="7.93978" transform="rotate(-18.3189 155.225 19.5525)" fill="#F94500"/>
<ellipse cx="165.078" cy="23.8399" rx="6.41112" ry="7.93978" transform="rotate(64.6059 165.078 23.8399)" fill="#F94500"/>
<ellipse cx="151.923" cy="29.2591" rx="6.41112" ry="7.93978" transform="rotate(-115.42 151.923 29.2591)" fill="#F94500"/>
<circle cx="158.638" cy="26.6385" r="3.48247" fill="#FFDB15"/>
<path d="M411.561 37.259C421.364 23.2576 427.041 13.1338 427.832 13.9831C429.77 15.8142 430.913 42.0154 428.921 41.7092C425.528 41.2435 412.935 26.965 411.636 21.1771C410.641 16.7434 440.154 26.1724 437.623 28.0262C435.685 30.1336 423.953 33.1684 413.065 36.8338" stroke="#826DEE" stroke-width="3" stroke-linecap="round"/>
<path d="M999.639 41.921C993.461 25.9845 988.209 15.6338 989.355 15.449C991.955 14.858 1014.36 28.4898 1013 29.9739C1010.72 32.5337 991.851 35.0506 986.319 32.9088C982.082 31.2681 1006.34 11.9952 1006.47 15.1292C1007.14 17.9122 1003.14 29.3486 1000.12 40.4347" stroke="#F94500" stroke-width="3" stroke-linecap="round"/>
<path d="M599.031 35.2837L603.52 17.5375" stroke="#FFDB15" stroke-width="4" stroke-linecap="round"/>
<path d="M606.194 34.4268L596.297 18.0144" stroke="#F94500" stroke-width="4" stroke-linecap="round"/>
<path d="M592.752 31.2274L609.553 21.9067" stroke="#F94500" stroke-width="4" stroke-linecap="round"/>
<path d="M610.772 28.7683L591.362 23.4083" stroke="#FFDB15" stroke-width="4" stroke-linecap="round"/>
<path d="M749.501 24.6485C747.648 27.4958 742.257 30.9893 742.979 30.7549C743.7 30.5205 748.997 31.1058 752.118 32.7033C754.586 34.4859 758.273 38.1468 758.507 38.8681C758.741 39.5895 758.937 32.352 759.812 30.2036C761.057 26.8682 765.46 23.4509 766.542 23.0994C767.624 22.7479 760.844 23.5514 757.195 22.1488C754.016 20.7236 750.539 14.343 750.734 14.9441C750.93 15.5452 751.055 20.8278 749.501 24.6485Z" stroke="#826DEE" stroke-width="3" stroke-linecap="round"/>
<rect x="1024" width="1024" height="50" fill="#FF99DC"/>
<path d="M1060.53 36H1057.48L1051.53 29.4688L1048.91 31.875V36H1046.77V21.4375H1048.91V29.2812L1057.2 21.4375H1060.27L1052.97 28.125L1060.53 36ZM1077.27 36H1075.11V29.4688H1066.38V36H1064.23V21.4375H1066.38V27.6406H1075.11V21.4375H1077.27V36ZM1095.88 28.7656C1095.88 29.901 1095.69 30.9323 1095.33 31.8594C1094.97 32.7865 1094.46 33.5833 1093.78 34.25C1093.11 34.9062 1092.31 35.4219 1091.38 35.7969C1090.44 36.1719 1089.39 36.3594 1088.23 36.3594C1087.1 36.3594 1086.06 36.1719 1085.12 35.7969C1084.19 35.4219 1083.38 34.9062 1082.7 34.25C1082.04 33.5833 1081.52 32.7865 1081.16 31.8594C1080.8 30.9323 1080.62 29.901 1080.62 28.7656C1080.62 27.6615 1080.8 26.6354 1081.16 25.6875C1081.52 24.7292 1082.04 23.9167 1082.7 23.25C1083.38 22.5729 1084.19 22.0469 1085.12 21.6719C1086.06 21.2865 1087.1 21.0938 1088.23 21.0938C1089.39 21.0938 1090.44 21.2865 1091.38 21.6719C1092.31 22.0469 1093.11 22.5729 1093.78 23.25C1094.46 23.9167 1094.97 24.7292 1095.33 25.6875C1095.69 26.6354 1095.88 27.6615 1095.88 28.7656ZM1093.73 28.7656C1093.73 27.9323 1093.61 27.1667 1093.36 26.4688C1093.12 25.7604 1092.76 25.1406 1092.28 24.6094C1091.8 24.0781 1091.22 23.6615 1090.53 23.3594C1089.85 23.0573 1089.09 22.9062 1088.23 22.9062C1087.38 22.9062 1086.61 23.0573 1085.92 23.3594C1085.24 23.6615 1084.67 24.0781 1084.2 24.6094C1083.73 25.1406 1083.38 25.7604 1083.12 26.4688C1082.89 27.1667 1082.77 27.9323 1082.77 28.7656C1082.77 29.599 1082.89 30.3698 1083.12 31.0781C1083.38 31.776 1083.73 32.3802 1084.2 32.8906C1084.67 33.401 1085.24 33.8021 1085.92 34.0938C1086.61 34.3854 1087.38 34.5312 1088.23 34.5312C1089.09 34.5312 1089.85 34.3854 1090.53 34.0938C1091.22 33.8021 1091.8 33.401 1092.28 32.8906C1092.76 32.3802 1093.12 31.776 1093.36 31.0781C1093.61 30.3698 1093.73 29.599 1093.73 28.7656ZM1112.2 36H1110.05V23.2656H1101.31V36H1099.17V21.4375H1112.2V36ZM1130.41 36H1127.36L1121.41 29.4688L1118.78 31.875V36H1116.64V21.4375H1118.78V29.2812L1127.08 21.4375H1130.14L1122.84 28.125L1130.41 36ZM1134.11 21.4375H1136.25V33.1875L1144.12 21.4375H1147.14V36H1144.98V23.7188L1136.77 36H1134.11V21.4375Z" fill="black"/>
<path d="M1836.8 34H1834.64V21.2656H1825.91V34H1823.77V19.4375H1836.8V34ZM1855.03 26.7344C1855.03 27.8698 1854.85 28.901 1854.5 29.8281C1854.15 30.7552 1853.65 31.5573 1853 32.2344C1852.36 32.901 1851.59 33.4219 1850.69 33.7969C1849.78 34.1719 1848.77 34.3594 1847.64 34.3594C1846.87 34.3594 1846.12 34.2188 1845.39 33.9375C1844.67 33.6562 1844 33.2396 1843.38 32.6875V39.8281H1841.23V19.4375H1843.38V20.7812C1844.7 19.6562 1846.12 19.0938 1847.64 19.0938C1848.77 19.0938 1849.78 19.2812 1850.69 19.6562C1851.59 20.0208 1852.36 20.5469 1853 21.2344C1853.65 21.9115 1854.15 22.724 1854.5 23.6719C1854.85 24.6094 1855.03 25.6302 1855.03 26.7344ZM1852.89 26.7344C1852.89 25.9219 1852.78 25.1615 1852.55 24.4531C1852.33 23.7344 1851.99 23.1146 1851.55 22.5938C1851.1 22.0729 1850.55 21.6615 1849.89 21.3594C1849.24 21.0573 1848.49 20.9062 1847.64 20.9062C1846.83 20.9062 1846.07 21.0573 1845.36 21.3594C1844.66 21.6615 1844 22.151 1843.38 22.8281V30.6406C1844 31.3177 1844.66 31.8021 1845.36 32.0938C1846.07 32.3854 1846.83 32.5312 1847.64 32.5312C1848.49 32.5312 1849.24 32.3802 1849.89 32.0781C1850.55 31.776 1851.1 31.3646 1851.55 30.8438C1851.99 30.3229 1852.33 29.7135 1852.55 29.0156C1852.78 28.3073 1852.89 27.5469 1852.89 26.7344ZM1872.88 26.7656C1872.88 27.901 1872.69 28.9323 1872.33 29.8594C1871.97 30.7865 1871.46 31.5833 1870.78 32.25C1870.11 32.9062 1869.31 33.4219 1868.38 33.7969C1867.44 34.1719 1866.39 34.3594 1865.23 34.3594C1864.1 34.3594 1863.06 34.1719 1862.12 33.7969C1861.19 33.4219 1860.38 32.9062 1859.7 32.25C1859.04 31.5833 1858.52 30.7865 1858.16 29.8594C1857.8 28.9323 1857.62 27.901 1857.62 26.7656C1857.62 25.6615 1857.8 24.6354 1858.16 23.6875C1858.52 22.7292 1859.04 21.9167 1859.7 21.25C1860.38 20.5729 1861.19 20.0469 1862.12 19.6719C1863.06 19.2865 1864.1 19.0938 1865.23 19.0938C1866.39 19.0938 1867.44 19.2865 1868.38 19.6719C1869.31 20.0469 1870.11 20.5729 1870.78 21.25C1871.46 21.9167 1871.97 22.7292 1872.33 23.6875C1872.69 24.6354 1872.88 25.6615 1872.88 26.7656ZM1870.73 26.7656C1870.73 25.9323 1870.61 25.1667 1870.36 24.4688C1870.12 23.7604 1869.76 23.1406 1869.28 22.6094C1868.8 22.0781 1868.22 21.6615 1867.53 21.3594C1866.85 21.0573 1866.09 20.9062 1865.23 20.9062C1864.38 20.9062 1863.61 21.0573 1862.92 21.3594C1862.24 21.6615 1861.67 22.0781 1861.2 22.6094C1860.73 23.1406 1860.38 23.7604 1860.12 24.4688C1859.89 25.1667 1859.77 25.9323 1859.77 26.7656C1859.77 27.599 1859.89 28.3698 1860.12 29.0781C1860.38 29.776 1860.73 30.3802 1861.2 30.8906C1861.67 31.401 1862.24 31.8021 1862.92 32.0938C1863.61 32.3854 1864.38 32.5312 1865.23 32.5312C1866.09 32.5312 1866.85 32.3854 1867.53 32.0938C1868.22 31.8021 1868.8 31.401 1869.28 30.8906C1869.76 30.3802 1870.12 29.776 1870.36 29.0781C1870.61 28.3698 1870.73 27.599 1870.73 26.7656ZM1889.94 34H1886.89L1880.94 27.4688L1878.31 29.875V34H1876.17V19.4375H1878.31V27.2812L1886.61 19.4375H1889.67L1882.38 26.125L1889.94 34ZM1907.44 26.7344C1907.44 27.8698 1907.26 28.901 1906.91 29.8281C1906.55 30.7552 1906.05 31.5573 1905.41 32.2344C1904.77 32.901 1904 33.4219 1903.09 33.7969C1902.19 34.1719 1901.17 34.3594 1900.05 34.3594C1899.28 34.3594 1898.53 34.2188 1897.8 33.9375C1897.08 33.6562 1896.41 33.2396 1895.78 32.6875V39.8281H1893.64V19.4375H1895.78V20.7812C1897.1 19.6562 1898.53 19.0938 1900.05 19.0938C1901.17 19.0938 1902.19 19.2812 1903.09 19.6562C1904 20.0208 1904.77 20.5469 1905.41 21.2344C1906.05 21.9115 1906.55 22.724 1906.91 23.6719C1907.26 24.6094 1907.44 25.6302 1907.44 26.7344ZM1905.3 26.7344C1905.3 25.9219 1905.18 25.1615 1904.95 24.4531C1904.73 23.7344 1904.4 23.1146 1903.95 22.5938C1903.51 22.0729 1902.95 21.6615 1902.3 21.3594C1901.65 21.0573 1900.9 20.9062 1900.05 20.9062C1899.23 20.9062 1898.47 21.0573 1897.77 21.3594C1897.07 21.6615 1896.41 22.151 1895.78 22.8281V30.6406C1896.41 31.3177 1897.07 31.8021 1897.77 32.0938C1898.47 32.3854 1899.23 32.5312 1900.05 32.5312C1900.9 32.5312 1901.65 32.3802 1902.3 32.0781C1902.95 31.776 1903.51 31.3646 1903.95 30.8438C1904.4 30.3229 1904.73 29.7135 1904.95 29.0156C1905.18 28.3073 1905.3 27.5469 1905.3 26.7344ZM1925.36 19.4375L1917.48 37.6875C1917.08 38.7083 1916.51 39.375 1915.77 39.6875C1915.03 40.0104 1914.21 40.1719 1913.31 40.1719C1912.31 40.1719 1911.31 39.9896 1910.31 39.625L1910.73 37.7812C1911.22 37.9896 1911.7 38.1354 1912.17 38.2188C1912.64 38.3125 1913.02 38.3594 1913.31 38.3594C1914.02 38.3594 1914.51 38.1875 1914.77 37.8438C1915.04 37.5 1915.27 37.0938 1915.47 36.625L1916.36 34.4219L1909.86 19.4375H1912.39L1917.64 32.1719L1922.8 19.4375H1925.36ZM1942.38 26.3125H1940.55V21.2656H1936.17V32.1719H1939.45V34H1930.72V32.1719H1934.02V21.2656H1929.64V26.3125H1927.81V19.4375H1942.38V26.3125ZM1959.81 34H1956.77L1950.81 27.4688L1948.19 29.875V34H1946.05V19.4375H1948.19V27.2812L1956.48 19.4375H1959.55L1952.25 26.125L1959.81 34ZM1962.72 30.0625C1962.72 29.1458 1962.95 28.3802 1963.41 27.7656C1963.86 27.1406 1964.46 26.651 1965.2 26.2969C1965.95 25.9323 1966.81 25.6719 1967.77 25.5156C1968.73 25.349 1969.72 25.2656 1970.72 25.2656C1971.1 25.2656 1971.45 25.2708 1971.75 25.2812C1972.06 25.2917 1972.35 25.3073 1972.62 25.3281C1972.91 25.349 1973.19 25.375 1973.47 25.4062C1973.75 25.4375 1974.06 25.474 1974.39 25.5156V24.4688C1974.39 23.7604 1974.23 23.1771 1973.92 22.7188C1973.62 22.2604 1973.24 21.901 1972.8 21.6406C1972.35 21.3698 1971.88 21.1823 1971.39 21.0781C1970.9 20.9635 1970.48 20.9062 1970.14 20.9062C1969.06 20.9062 1968.06 21.0521 1967.14 21.3438C1966.22 21.6354 1965.37 22.026 1964.58 22.5156L1963.61 20.9062C1964.48 20.375 1965.46 19.9427 1966.55 19.6094C1967.64 19.2656 1968.84 19.0938 1970.14 19.0938C1970.93 19.0938 1971.71 19.1979 1972.47 19.4062C1973.24 19.6042 1973.93 19.9167 1974.53 20.3438C1975.15 20.7604 1975.64 21.3125 1976 22C1976.36 22.6875 1976.55 23.5104 1976.55 24.4688V34H1974.39V31.5625C1974.02 32.0312 1973.59 32.4427 1973.11 32.7969C1972.64 33.151 1972.15 33.4427 1971.62 33.6719C1971.1 33.8906 1970.58 34.0573 1970.06 34.1719C1969.54 34.2969 1969.05 34.3594 1968.58 34.3594C1966.65 34.3594 1965.19 33.9896 1964.2 33.25C1963.21 32.5104 1962.72 31.4479 1962.72 30.0625ZM1968.58 32.5312C1969.47 32.5312 1970.28 32.401 1970.98 32.1406C1971.7 31.8698 1972.31 31.5365 1972.81 31.1406C1973.31 30.7448 1973.7 30.3229 1973.97 29.875C1974.25 29.4271 1974.39 29.0208 1974.39 28.6562V27.2812C1973.69 27.1771 1973.02 27.1198 1972.38 27.1094C1971.74 27.099 1971.19 27.0938 1970.72 27.0938C1969.95 27.0938 1969.2 27.1458 1968.48 27.25C1967.78 27.3542 1967.16 27.526 1966.62 27.7656C1966.09 27.9948 1965.67 28.2969 1965.34 28.6719C1965.02 29.0469 1964.86 29.5104 1964.86 30.0625C1964.86 30.6771 1965.16 31.2448 1965.75 31.7656C1966.35 32.276 1967.3 32.5312 1968.58 32.5312Z" fill="black"/>
<path d="M1681.8 36H1679.64V24.4531L1676.06 32H1674.53L1670.91 24.4531V36H1668.77V21.4375H1671.55L1675.3 29.0312L1679.02 21.4375H1681.8V36ZM1687.61 29.4688C1687.77 31.0104 1688.33 32.2396 1689.3 33.1562C1690.27 34.0729 1691.53 34.5312 1693.08 34.5312C1694.17 34.5312 1695.15 34.3073 1696 33.8594C1696.85 33.4115 1697.49 32.8542 1697.92 32.1875L1699.42 33.2188C1698.69 34.2396 1697.82 35.0208 1696.81 35.5625C1695.8 36.0938 1694.56 36.3594 1693.08 36.3594C1691.95 36.3594 1690.92 36.1719 1689.98 35.7969C1689.05 35.4219 1688.23 34.901 1687.55 34.2344C1686.87 33.5573 1686.34 32.7552 1685.97 31.8281C1685.59 30.901 1685.41 29.8698 1685.41 28.7344C1685.41 27.6302 1685.57 26.6146 1685.91 25.6875C1686.25 24.75 1686.74 23.9427 1687.38 23.2656C1688.02 22.5781 1688.8 22.0469 1689.72 21.6719C1690.64 21.2865 1691.66 21.0938 1692.8 21.0938C1694.04 21.0938 1695.12 21.3021 1696.05 21.7188C1696.97 22.1354 1697.74 22.7135 1698.36 23.4531C1698.98 24.1823 1699.44 25.0573 1699.73 26.0781C1700.04 27.099 1700.19 28.2292 1700.19 29.4688H1687.61ZM1697.92 27.6406C1697.68 26.0469 1697.1 24.8594 1696.19 24.0781C1695.27 23.2969 1694.14 22.9062 1692.8 22.9062C1692.11 22.9062 1691.47 23.0208 1690.89 23.25C1690.31 23.4688 1689.79 23.7865 1689.34 24.2031C1688.9 24.6198 1688.52 25.125 1688.22 25.7188C1687.92 26.3021 1687.72 26.9427 1687.64 27.6406H1697.92ZM1716.73 36H1714.58V29.4688H1705.84V36H1703.7V21.4375H1705.84V27.6406H1714.58V21.4375H1716.73V36ZM1721.17 21.4375H1723.31V27.8125H1726.27C1726.45 23.3333 1727.9 21.0938 1730.61 21.0938C1733.52 21.0938 1734.97 23.6406 1734.97 28.7344C1734.97 33.8177 1733.52 36.3594 1730.61 36.3594C1727.86 36.3594 1726.41 34.1146 1726.27 29.625H1723.31V36H1721.17V21.4375ZM1730.61 34.625C1732.09 34.625 1732.83 32.6615 1732.83 28.7344C1732.83 24.8281 1732.09 22.875 1730.61 22.875C1729.14 22.875 1728.41 24.8281 1728.41 28.7344C1728.41 32.6615 1729.14 34.625 1730.61 34.625Z" fill="black"/>
<path d="M1496.2 24.3906C1495.61 23.401 1494.88 22.9062 1494 22.9062C1493.23 22.9062 1492.65 23.3542 1492.27 24.25C1491.89 25.1458 1491.7 26.6406 1491.7 28.7344C1491.7 30.8281 1491.89 32.3177 1492.27 33.2031C1492.65 34.0885 1493.23 34.5312 1494 34.5312C1494.88 34.5312 1495.61 34.0417 1496.2 33.0625V24.3906ZM1496.2 35.0156C1495.65 35.9115 1494.92 36.3594 1494 36.3594C1492.51 36.3594 1491.4 35.7031 1490.66 34.3906C1489.92 33.0781 1489.55 31.1927 1489.55 28.7344C1489.55 26.2865 1489.92 24.401 1490.66 23.0781C1491.4 21.7552 1492.51 21.0938 1494 21.0938C1494.92 21.0938 1495.65 21.5417 1496.2 22.4375V15.6094H1498.36V22.4375C1498.91 21.5417 1499.65 21.0938 1500.56 21.0938C1502.05 21.0938 1503.17 21.7552 1503.91 23.0781C1504.65 24.401 1505.02 26.2865 1505.02 28.7344C1505.02 31.1927 1504.65 33.0781 1503.91 34.3906C1503.17 35.7031 1502.05 36.3594 1500.56 36.3594C1499.65 36.3594 1498.91 35.9115 1498.36 35.0156V41.8281H1496.2V35.0156ZM1498.36 33.0625C1498.95 34.0417 1499.69 34.5312 1500.56 34.5312C1501.33 34.5312 1501.91 34.0885 1502.28 33.2031C1502.67 32.3177 1502.86 30.8281 1502.86 28.7344C1502.86 26.6406 1502.67 25.1458 1502.28 24.25C1501.91 23.3542 1501.33 22.9062 1500.56 22.9062C1499.69 22.9062 1498.95 23.401 1498.36 24.3906V33.0625ZM1522.41 28.7656C1522.41 29.901 1522.22 30.9323 1521.86 31.8594C1521.51 32.7865 1520.99 33.5833 1520.31 34.25C1519.65 34.9062 1518.84 35.4219 1517.91 35.7969C1516.97 36.1719 1515.92 36.3594 1514.77 36.3594C1513.63 36.3594 1512.59 36.1719 1511.66 35.7969C1510.72 35.4219 1509.91 34.9062 1509.23 34.25C1508.57 33.5833 1508.05 32.7865 1507.69 31.8594C1507.33 30.9323 1507.16 29.901 1507.16 28.7656C1507.16 27.6615 1507.33 26.6354 1507.69 25.6875C1508.05 24.7292 1508.57 23.9167 1509.23 23.25C1509.91 22.5729 1510.72 22.0469 1511.66 21.6719C1512.59 21.2865 1513.63 21.0938 1514.77 21.0938C1515.92 21.0938 1516.97 21.2865 1517.91 21.6719C1518.84 22.0469 1519.65 22.5729 1520.31 23.25C1520.99 23.9167 1521.51 24.7292 1521.86 25.6875C1522.22 26.6354 1522.41 27.6615 1522.41 28.7656ZM1520.27 28.7656C1520.27 27.9323 1520.14 27.1667 1519.89 26.4688C1519.65 25.7604 1519.29 25.1406 1518.81 24.6094C1518.33 24.0781 1517.75 23.6615 1517.06 23.3594C1516.39 23.0573 1515.62 22.9062 1514.77 22.9062C1513.91 22.9062 1513.14 23.0573 1512.45 23.3594C1511.78 23.6615 1511.2 24.0781 1510.73 24.6094C1510.27 25.1406 1509.91 25.7604 1509.66 26.4688C1509.42 27.1667 1509.3 27.9323 1509.3 28.7656C1509.3 29.599 1509.42 30.3698 1509.66 31.0781C1509.91 31.776 1510.27 32.3802 1510.73 32.8906C1511.2 33.401 1511.78 33.8021 1512.45 34.0938C1513.14 34.3854 1513.91 34.5312 1514.77 34.5312C1515.62 34.5312 1516.39 34.3854 1517.06 34.0938C1517.75 33.8021 1518.33 33.401 1518.81 32.8906C1519.29 32.3802 1519.65 31.776 1519.89 31.0781C1520.14 30.3698 1520.27 29.599 1520.27 28.7656ZM1539.5 28.7344C1539.5 29.8698 1539.32 30.901 1538.97 31.8281C1538.61 32.7552 1538.11 33.5573 1537.47 34.2344C1536.83 34.901 1536.06 35.4219 1535.16 35.7969C1534.25 36.1719 1533.23 36.3594 1532.11 36.3594C1531.34 36.3594 1530.59 36.2188 1529.86 35.9375C1529.14 35.6562 1528.47 35.2396 1527.84 34.6875V41.8281H1525.7V21.4375H1527.84V22.7812C1529.17 21.6562 1530.59 21.0938 1532.11 21.0938C1533.23 21.0938 1534.25 21.2812 1535.16 21.6562C1536.06 22.0208 1536.83 22.5469 1537.47 23.2344C1538.11 23.9115 1538.61 24.724 1538.97 25.6719C1539.32 26.6094 1539.5 27.6302 1539.5 28.7344ZM1537.36 28.7344C1537.36 27.9219 1537.24 27.1615 1537.02 26.4531C1536.8 25.7344 1536.46 25.1146 1536.02 24.5938C1535.57 24.0729 1535.02 23.6615 1534.36 23.3594C1533.71 23.0573 1532.96 22.9062 1532.11 22.9062C1531.3 22.9062 1530.54 23.0573 1529.83 23.3594C1529.13 23.6615 1528.47 24.151 1527.84 24.8281V32.6406C1528.47 33.3177 1529.13 33.8021 1529.83 34.0938C1530.54 34.3854 1531.3 34.5312 1532.11 34.5312C1532.96 34.5312 1533.71 34.3802 1534.36 34.0781C1535.02 33.776 1535.57 33.3646 1536.02 32.8438C1536.46 32.3229 1536.8 31.7135 1537.02 31.0156C1537.24 30.3073 1537.36 29.5469 1537.36 28.7344ZM1556.2 36H1554.05V24.4531L1550.47 32H1548.94L1545.31 24.4531V36H1543.17V21.4375H1545.95L1549.7 29.0312L1553.42 21.4375H1556.2V36ZM1572.3 21.4375H1574.44V36H1572.3V21.4375ZM1562.02 27.2656H1564.52C1566.12 27.2656 1567.34 27.6146 1568.17 28.3125C1569.02 29 1569.44 30.099 1569.44 31.6094C1569.44 33.1302 1569.02 34.2448 1568.17 34.9531C1567.34 35.651 1566.13 36 1564.55 36H1559.88V21.4375H1562.02V27.2656ZM1567.3 31.6094C1567.3 30.8073 1567.06 30.1875 1566.58 29.75C1566.1 29.3125 1565.42 29.0938 1564.55 29.0938H1562.02V34.1719H1564.55C1565.42 34.1719 1566.1 33.9479 1566.58 33.5C1567.06 33.0521 1567.3 32.4219 1567.3 31.6094Z" fill="black"/>
<path d="M1218.77 21.4375H1220.91V33.1875L1228.78 21.4375H1231.8V36H1229.64V23.7188L1221.42 36H1218.77V21.4375ZM1249.27 25.4375C1249.27 26.1458 1249.02 26.8125 1248.52 27.4375C1248.03 28.0521 1247.27 28.4427 1246.25 28.6094C1247.21 28.7969 1247.98 29.2031 1248.56 29.8281C1249.16 30.4427 1249.45 31.125 1249.45 31.875C1249.45 32.5729 1249.27 33.2031 1248.89 33.7656C1248.52 34.3177 1248 34.7865 1247.34 35.1719C1246.7 35.5573 1245.93 35.849 1245.05 36.0469C1244.16 36.2552 1243.2 36.3594 1242.16 36.3594C1240.49 36.3594 1239.11 36.1042 1238.03 35.5938C1236.96 35.0729 1236.09 34.2917 1235.44 33.25L1236.94 32.2188C1237.43 32.9688 1238.1 33.5417 1238.95 33.9375C1239.81 34.3333 1240.88 34.5312 1242.16 34.5312C1243.69 34.5312 1244.93 34.2969 1245.88 33.8281C1246.83 33.3594 1247.31 32.7083 1247.31 31.875C1247.31 31.5938 1247.22 31.3125 1247.03 31.0312C1246.85 30.7396 1246.59 30.4844 1246.23 30.2656C1245.88 30.0365 1245.44 29.8542 1244.92 29.7188C1244.4 29.5729 1243.79 29.5 1243.08 29.5H1240.64V27.6875H1243.08C1244.44 27.6875 1245.45 27.4479 1246.11 26.9688C1246.78 26.4792 1247.11 25.9688 1247.11 25.4375C1247.11 24.6667 1246.68 24.0521 1245.83 23.5938C1244.98 23.1354 1243.82 22.9062 1242.34 22.9062C1241.11 22.9062 1240.1 23.125 1239.3 23.5625C1238.49 24 1237.88 24.5833 1237.45 25.3125L1235.86 24.2188C1236.49 23.1771 1237.33 22.3958 1238.38 21.875C1239.43 21.3542 1240.75 21.0938 1242.34 21.0938C1243.35 21.0938 1244.28 21.1979 1245.11 21.4062C1245.95 21.6042 1246.68 21.8906 1247.3 22.2656C1247.92 22.6302 1248.41 23.0885 1248.75 23.6406C1249.09 24.1823 1249.27 24.7812 1249.27 25.4375ZM1267.88 28.7656C1267.88 29.901 1267.69 30.9323 1267.33 31.8594C1266.97 32.7865 1266.46 33.5833 1265.78 34.25C1265.11 34.9062 1264.31 35.4219 1263.38 35.7969C1262.44 36.1719 1261.39 36.3594 1260.23 36.3594C1259.1 36.3594 1258.06 36.1719 1257.12 35.7969C1256.19 35.4219 1255.38 34.9062 1254.7 34.25C1254.04 33.5833 1253.52 32.7865 1253.16 31.8594C1252.8 30.9323 1252.62 29.901 1252.62 28.7656C1252.62 27.6615 1252.8 26.6354 1253.16 25.6875C1253.52 24.7292 1254.04 23.9167 1254.7 23.25C1255.38 22.5729 1256.19 22.0469 1257.12 21.6719C1258.06 21.2865 1259.1 21.0938 1260.23 21.0938C1261.39 21.0938 1262.44 21.2865 1263.38 21.6719C1264.31 22.0469 1265.11 22.5729 1265.78 23.25C1266.46 23.9167 1266.97 24.7292 1267.33 25.6875C1267.69 26.6354 1267.88 27.6615 1267.88 28.7656ZM1265.73 28.7656C1265.73 27.9323 1265.61 27.1667 1265.36 26.4688C1265.12 25.7604 1264.76 25.1406 1264.28 24.6094C1263.8 24.0781 1263.22 23.6615 1262.53 23.3594C1261.85 23.0573 1261.09 22.9062 1260.23 22.9062C1259.38 22.9062 1258.61 23.0573 1257.92 23.3594C1257.24 23.6615 1256.67 24.0781 1256.2 24.6094C1255.73 25.1406 1255.38 25.7604 1255.12 26.4688C1254.89 27.1667 1254.77 27.9323 1254.77 28.7656C1254.77 29.599 1254.89 30.3698 1255.12 31.0781C1255.38 31.776 1255.73 32.3802 1256.2 32.8906C1256.67 33.401 1257.24 33.8021 1257.92 34.0938C1258.61 34.3854 1259.38 34.5312 1260.23 34.5312C1261.09 34.5312 1261.85 34.3854 1262.53 34.0938C1263.22 33.8021 1263.8 33.401 1264.28 32.8906C1264.76 32.3802 1265.12 31.776 1265.36 31.0781C1265.61 30.3698 1265.73 29.599 1265.73 28.7656ZM1272.75 29.0625C1272.75 30.7188 1273.2 32.0469 1274.09 33.0469C1274.99 34.0365 1276.22 34.5312 1277.8 34.5312C1278.53 34.5312 1279.2 34.4062 1279.81 34.1562C1280.44 33.8958 1280.97 33.526 1281.42 33.0469C1281.87 32.5573 1282.21 31.9792 1282.45 31.3125C1282.7 30.6354 1282.83 29.8854 1282.83 29.0625C1282.83 27.3958 1282.39 26.0677 1281.52 25.0781C1280.64 24.0781 1279.4 23.5781 1277.8 23.5781C1276.07 23.5781 1274.79 24.0781 1273.97 25.0781C1273.16 26.0677 1272.75 27.3958 1272.75 29.0625ZM1270.41 25.8281C1270.41 24.2656 1270.57 22.8385 1270.89 21.5469C1271.22 20.2552 1271.69 19.1458 1272.28 18.2188C1272.89 17.2917 1273.6 16.5677 1274.42 16.0469C1275.24 15.526 1276.16 15.2656 1277.16 15.2656C1277.62 15.2656 1278.02 15.3125 1278.34 15.4062C1278.67 15.5 1278.95 15.6146 1279.2 15.75C1279.46 15.875 1279.71 15.9844 1279.94 16.0781C1280.18 16.1719 1280.46 16.2188 1280.78 16.2188C1281.21 16.2188 1281.57 16.1458 1281.86 16C1282.16 15.8542 1282.53 15.6094 1282.95 15.2656L1284.06 16.5469C1283.61 16.974 1283.09 17.3333 1282.48 17.625C1281.88 17.9062 1281.31 18.0469 1280.78 18.0469C1280.38 18.0469 1280.02 18 1279.72 17.9062C1279.42 17.8125 1279.14 17.7031 1278.88 17.5781C1278.62 17.4427 1278.36 17.3281 1278.09 17.2344C1277.83 17.1406 1277.52 17.0938 1277.16 17.0938C1276.52 17.0938 1275.92 17.2708 1275.36 17.625C1274.81 17.9688 1274.32 18.474 1273.91 19.1406C1273.49 19.7969 1273.16 20.5938 1272.92 21.5312C1272.69 22.4688 1272.58 23.526 1272.58 24.7031C1272.84 24.2344 1273.16 23.8177 1273.53 23.4531C1273.91 23.0885 1274.32 22.7812 1274.78 22.5312C1275.24 22.2708 1275.73 22.0781 1276.25 21.9531C1276.77 21.8281 1277.29 21.7656 1277.8 21.7656C1278.82 21.7656 1279.77 21.9219 1280.64 22.2344C1281.52 22.5365 1282.27 22.9948 1282.91 23.6094C1283.55 24.2135 1284.06 24.9688 1284.42 25.875C1284.79 26.7812 1284.97 27.8438 1284.97 29.0625C1284.97 30.0833 1284.79 31.0417 1284.42 31.9375C1284.06 32.8333 1283.55 33.6094 1282.91 34.2656C1282.27 34.9115 1281.52 35.4219 1280.64 35.7969C1279.77 36.1719 1278.82 36.3594 1277.8 36.3594C1275.35 36.3594 1273.51 35.5052 1272.27 33.7969C1271.03 32.0885 1270.41 29.4323 1270.41 25.8281ZM1302.44 28.7344C1302.44 29.8698 1302.26 30.901 1301.91 31.8281C1301.55 32.7552 1301.05 33.5573 1300.41 34.2344C1299.77 34.901 1299 35.4219 1298.09 35.7969C1297.19 36.1719 1296.17 36.3594 1295.05 36.3594C1294.28 36.3594 1293.53 36.2188 1292.8 35.9375C1292.08 35.6562 1291.41 35.2396 1290.78 34.6875V41.8281H1288.64V21.4375H1290.78V22.7812C1292.1 21.6562 1293.53 21.0938 1295.05 21.0938C1296.17 21.0938 1297.19 21.2812 1298.09 21.6562C1299 22.0208 1299.77 22.5469 1300.41 23.2344C1301.05 23.9115 1301.55 24.724 1301.91 25.6719C1302.26 26.6094 1302.44 27.6302 1302.44 28.7344ZM1300.3 28.7344C1300.3 27.9219 1300.18 27.1615 1299.95 26.4531C1299.73 25.7344 1299.4 25.1146 1298.95 24.5938C1298.51 24.0729 1297.95 23.6615 1297.3 23.3594C1296.65 23.0573 1295.9 22.9062 1295.05 22.9062C1294.23 22.9062 1293.47 23.0573 1292.77 23.3594C1292.07 23.6615 1291.41 24.151 1290.78 24.8281V32.6406C1291.41 33.3177 1292.07 33.8021 1292.77 34.0938C1293.47 34.3854 1294.23 34.5312 1295.05 34.5312C1295.9 34.5312 1296.65 34.3802 1297.3 34.0781C1297.95 33.776 1298.51 33.3646 1298.95 32.8438C1299.4 32.3229 1299.73 31.7135 1299.95 31.0156C1300.18 30.3073 1300.3 29.5469 1300.3 28.7344ZM1305.31 32.0625C1305.31 31.1458 1305.54 30.3802 1306 29.7656C1306.46 29.1406 1307.06 28.651 1307.8 28.2969C1308.55 27.9323 1309.4 27.6719 1310.36 27.5156C1311.33 27.349 1312.31 27.2656 1313.31 27.2656C1313.7 27.2656 1314.04 27.2708 1314.34 27.2812C1314.66 27.2917 1314.95 27.3073 1315.22 27.3281C1315.5 27.349 1315.78 27.375 1316.06 27.4062C1316.34 27.4375 1316.65 27.474 1316.98 27.5156V26.4688C1316.98 25.7604 1316.83 25.1771 1316.52 24.7188C1316.21 24.2604 1315.84 23.901 1315.39 23.6406C1314.94 23.3698 1314.47 23.1823 1313.98 23.0781C1313.49 22.9635 1313.08 22.9062 1312.73 22.9062C1311.65 22.9062 1310.65 23.0521 1309.73 23.3438C1308.82 23.6354 1307.96 24.026 1307.17 24.5156L1306.2 22.9062C1307.08 22.375 1308.06 21.9427 1309.14 21.6094C1310.23 21.2656 1311.43 21.0938 1312.73 21.0938C1313.53 21.0938 1314.3 21.1979 1315.06 21.4062C1315.83 21.6042 1316.52 21.9167 1317.12 22.3438C1317.74 22.7604 1318.23 23.3125 1318.59 24C1318.96 24.6875 1319.14 25.5104 1319.14 26.4688V36H1316.98V33.5625C1316.61 34.0312 1316.18 34.4427 1315.7 34.7969C1315.23 35.151 1314.74 35.4427 1314.22 35.6719C1313.7 35.8906 1313.18 36.0573 1312.66 36.1719C1312.14 36.2969 1311.64 36.3594 1311.17 36.3594C1309.24 36.3594 1307.79 35.9896 1306.8 35.25C1305.81 34.5104 1305.31 33.4479 1305.31 32.0625ZM1311.17 34.5312C1312.07 34.5312 1312.87 34.401 1313.58 34.1406C1314.3 33.8698 1314.91 33.5365 1315.41 33.1406C1315.91 32.7448 1316.29 32.3229 1316.56 31.875C1316.84 31.4271 1316.98 31.0208 1316.98 30.6562V29.2812C1316.29 29.1771 1315.61 29.1198 1314.97 29.1094C1314.33 29.099 1313.78 29.0938 1313.31 29.0938C1312.54 29.0938 1311.8 29.1458 1311.08 29.25C1310.37 29.3542 1309.75 29.526 1309.22 29.7656C1308.69 29.9948 1308.26 30.2969 1307.94 30.6719C1307.61 31.0469 1307.45 31.5104 1307.45 32.0625C1307.45 32.6771 1307.75 33.2448 1308.34 33.7656C1308.95 34.276 1309.89 34.5312 1311.17 34.5312ZM1327.03 27.8125L1322.56 21.4375H1324.95L1329.02 27.5781V21.4375H1331.17V27.5781L1335.23 21.4375H1337.62L1333.16 27.8125L1337.62 36H1335.33L1331.94 29.4688L1331.17 30.5938V36H1329.02V30.5938L1328.25 29.4688L1324.86 36H1322.56L1327.03 27.8125ZM1342.42 29.4688C1342.58 31.0104 1343.14 32.2396 1344.11 33.1562C1345.08 34.0729 1346.34 34.5312 1347.89 34.5312C1348.98 34.5312 1349.96 34.3073 1350.81 33.8594C1351.67 33.4115 1352.31 32.8542 1352.73 32.1875L1354.23 33.2188C1353.51 34.2396 1352.64 35.0208 1351.62 35.5625C1350.61 36.0938 1349.37 36.3594 1347.89 36.3594C1346.77 36.3594 1345.73 36.1719 1344.8 35.7969C1343.86 35.4219 1343.05 34.901 1342.36 34.2344C1341.68 33.5573 1341.16 32.7552 1340.78 31.8281C1340.41 30.901 1340.22 29.8698 1340.22 28.7344C1340.22 27.6302 1340.39 26.6146 1340.72 25.6875C1341.06 24.75 1341.55 23.9427 1342.19 23.2656C1342.83 22.5781 1343.61 22.0469 1344.53 21.6719C1345.45 21.2865 1346.47 21.0938 1347.61 21.0938C1348.85 21.0938 1349.93 21.3021 1350.86 21.7188C1351.79 22.1354 1352.56 22.7135 1353.17 23.4531C1353.8 24.1823 1354.26 25.0573 1354.55 26.0781C1354.85 27.099 1355 28.2292 1355 29.4688H1342.42ZM1352.73 27.6406C1352.49 26.0469 1351.92 24.8594 1351 24.0781C1350.08 23.2969 1348.95 22.9062 1347.61 22.9062C1346.92 22.9062 1346.29 23.0208 1345.7 23.25C1345.12 23.4688 1344.6 23.7865 1344.16 24.2031C1343.71 24.6198 1343.33 25.125 1343.03 25.7188C1342.73 26.3021 1342.54 26.9427 1342.45 27.6406H1352.73ZM1371.55 36H1369.39V29.4688H1360.66V36H1358.52V21.4375H1360.66V27.6406H1369.39V21.4375H1371.55V36ZM1375.98 21.4375H1378.12V33.1875L1386 21.4375H1389.02V36H1386.86V23.7188L1378.64 36H1375.98V21.4375ZM1398.09 30.1719C1396.36 30.0885 1395.04 29.7031 1394.11 29.0156C1393.18 28.3177 1392.72 27.2552 1392.72 25.8281C1392.72 24.3073 1393.23 23.1979 1394.27 22.5C1395.31 21.7917 1396.8 21.4375 1398.73 21.4375H1406.48V36H1404.33V30.1719H1400.84L1395.53 36H1392.5L1398.09 30.1719ZM1394.86 25.8281C1394.86 26.6406 1395.2 27.2656 1395.89 27.7031C1396.59 28.1406 1397.55 28.3594 1398.77 28.3594H1404.33V23.2656H1398.77C1397.55 23.2656 1396.59 23.4896 1395.89 23.9375C1395.2 24.3854 1394.86 25.0156 1394.86 25.8281Z" fill="black"/>
<ellipse cx="1184.82" cy="32.8213" rx="6.41112" ry="7.93978" transform="rotate(-20.202 1184.82 32.8213)" fill="#F94500"/>
<ellipse cx="1179.23" cy="19.5525" rx="6.41112" ry="7.93978" transform="rotate(-18.3189 1179.23 19.5525)" fill="#F94500"/>
<ellipse cx="1189.08" cy="23.8399" rx="6.41112" ry="7.93978" transform="rotate(64.6059 1189.08 23.8399)" fill="#F94500"/>
<ellipse cx="1175.92" cy="29.2591" rx="6.41112" ry="7.93978" transform="rotate(-115.42 1175.92 29.2591)" fill="#F94500"/>
<circle cx="1182.64" cy="26.6385" r="3.48247" fill="#FFDB15"/>
<path d="M1435.56 37.259C1445.36 23.2576 1451.04 13.1338 1451.83 13.9831C1453.77 15.8142 1454.91 42.0154 1452.92 41.7092C1449.53 41.2435 1436.94 26.965 1435.64 21.1771C1434.64 16.7434 1464.15 26.1724 1461.62 28.0262C1459.69 30.1336 1447.95 33.1684 1437.07 36.8338" stroke="#826DEE" stroke-width="3" stroke-linecap="round"/>
<path d="M2023.64 41.921C2017.46 25.9845 2012.21 15.6338 2013.36 15.449C2015.95 14.858 2038.36 28.4898 2037 29.9739C2034.72 32.5337 2015.85 35.0506 2010.32 32.9088C2006.08 31.2681 2030.34 11.9952 2030.47 15.1292C2031.14 17.9122 2027.14 29.3486 2024.12 40.4347" stroke="#F94500" stroke-width="3" stroke-linecap="round"/>
<path d="M1623.03 35.2837L1627.52 17.5375" stroke="#FFDB15" stroke-width="4" stroke-linecap="round"/>
<path d="M1630.19 34.4268L1620.3 18.0144" stroke="#F94500" stroke-width="4" stroke-linecap="round"/>
<path d="M1616.75 31.2274L1633.55 21.9067" stroke="#F94500" stroke-width="4" stroke-linecap="round"/>
<path d="M1634.77 28.7683L1615.36 23.4083" stroke="#FFDB15" stroke-width="4" stroke-linecap="round"/>
<path d="M1773.5 24.6485C1771.65 27.4958 1766.26 30.9893 1766.98 30.7549C1767.7 30.5205 1773 31.1058 1776.12 32.7033C1778.59 34.4859 1782.27 38.1468 1782.51 38.8681C1782.74 39.5895 1782.94 32.352 1783.81 30.2036C1785.06 26.8682 1789.46 23.4509 1790.54 23.0994C1791.62 22.7479 1784.84 23.5514 1781.2 22.1488C1778.02 20.7236 1774.54 14.343 1774.73 14.9441C1774.93 15.5452 1775.06 20.8278 1773.5 24.6485Z" stroke="#826DEE" stroke-width="3" stroke-linecap="round"/>
<line x1="1" y1="1" x2="2047" y2="1" stroke="#826DEE" stroke-width="2" stroke-linecap="round" stroke-dasharray="10 5"/>
</svg>
